<svg xmlns="http://www.w3.org/2000/svg" viewBox="106.88 243.38 838.24 256.74"><defs><clipPath id="a" clipPathUnits="userSpaceOnUse"><path d="M0-595.28h841.89V0H0z"/></clipPath><clipPath id="b" clipPathUnits="userSpaceOnUse"><path d="M172.946-280.098c2.716 6.678 9.191 11.427 16.804 11.6v-11.6z"/></clipPath><clipPath id="c" clipPathUnits="userSpaceOnUse"><path d="M190.673-290.377v9.281h17.197c.474-1.393.79-2.857.923-4.372v-4.909z"/></clipPath><clipPath id="d" clipPathUnits="userSpaceOnUse"><path d="M0-595.28h841.89V0H0z"/></clipPath></defs><g clip-path="url(#a)" transform="translate(0 744.1)scale(1.25)"><path fill="#231f20" d="M365.735-345.458c-3.516.307-4.966.995-5.196 3.518-.23 1.756-.382 4.203-.382 9.323v4.204c0 5.35-1.07 10.242-4.205 13.375-2.598 2.6-6.42 4.052-10.547 4.052-3.668 0-7.107-.764-9.859-2.828-3.21-2.447-4.969-6.42-4.969-12.84v-12.613c0-5.35-.459-5.655-5.35-6.19v-2.14h17.426v2.14c-4.814.535-5.196.84-5.196 6.19v10.854c0 8.866 3.439 13.452 9.782 13.452 6.65 0 9.86-5.044 9.86-13.986v-3.594c0-5.35-.153-7.643-.382-9.4-.306-2.522-1.605-3.21-5.962-3.517v-2.14h14.98zM410.677-345.38c-3.594.229-5.045.84-5.275 3.21-.23 2.063-.457 4.586-.457 9.858v20.713h-2.83l-23.081-27.591h-.078v11.847c0 5.35.231 8.025.46 9.86.306 2.37 1.757 3.057 5.962 3.362v2.14H370.32v-2.14c3.517-.305 4.892-.992 5.197-3.362.23-1.835.535-4.51.535-9.86v-10.241c0-6.344-1.299-7.49-6.572-7.796v-2.218h11.006l21.4 24.535h.154v-9.249c0-5.272-.23-7.795-.46-9.707-.23-2.52-1.528-3.132-5.883-3.361v-2.218h14.98zM415.565-311.98v-2.141c4.816-.458 5.352-.763 5.352-6.19v-18.879c0-5.503-.536-5.809-5.352-6.19v-2.217h17.584v2.217c-4.892.381-5.351.687-5.351 6.19v18.879c0 5.427.383 5.732 5.351 6.19v2.141zM478.472-345.38c-4.127.61-4.97 1.223-7.338 6.038-2.293 4.586-7.338 16.738-11.848 28.126h-2.521c-3.975-9.935-9.096-22.088-12.153-29.35-1.681-3.974-2.904-4.433-6.267-4.814v-2.218h16.815v2.218l-2.063.381c-2.065.383-2.371.917-1.377 3.44 1.453 3.899 5.272 12.993 8.56 21.095 2.6-6.268 6.803-16.969 7.95-20.713.994-2.905.687-3.516-2.065-3.974l-1.682-.23v-2.217h13.989zM515.308-321.534c-.457 2.37-1.605 8.024-2.064 9.555h-30.036v-2.142c5.35-.458 5.732-.917 5.732-6.344v-18.724c0-5.504-.382-5.886-5.197-6.192v-2.216h28.049c.076 1.528.307 5.273.611 8.867l-2.138.151c-.69-2.369-1.301-3.592-2.141-4.586-.994-1.299-2.293-1.834-6.268-1.834h-3.822c-2.062 0-2.215.153-2.215 2.217v10.852h5.35c4.586 0 4.969-.458 5.656-4.203h2.217v11.618h-2.217c-.687-3.822-1.07-4.433-5.656-4.433h-5.35v8.637c0 2.98.381 4.432 1.3 4.967.993.613 2.75.841 5.884.841 3.746 0 5.656-.459 7.031-1.987.994-.993 1.988-2.675 2.98-5.35zM536.097-329.712c2.14 0 3.974-.307 5.504-1.3 1.986-1.222 2.98-3.592 2.98-6.343 0-5.58-3.746-7.796-7.95-7.796-3.055 0-3.439.688-3.439 2.904v12.535zm21.63 18.19h-1.912c-6.648 0-9.017-1.757-11.234-4.967-1.758-2.447-3.746-5.962-4.969-8.027-1.299-2.216-2.062-2.75-4.89-2.75h-1.53v7.032c0 5.273.46 5.655 5.425 6.113v2.14H521.04v-2.14c4.967-.381 5.426-.763 5.426-6.113v-19.108c0-5.503-.46-5.732-5.197-6.038v-2.218h17.58c3.974 0 6.802.46 9.172 1.911 2.292 1.3 3.896 3.823 3.896 7.262 0 4.967-3.516 7.796-7.336 9.172.916 1.682 3.363 5.579 5.12 8.102 1.911 2.75 2.905 4.05 4.28 5.425 1.223 1.3 2.676 1.91 4.051 2.37zM582.718-337.66c-1.53-4.664-3.899-8.408-8.408-8.408-3.516 0-5.657 2.597-5.657 5.503 0 3.898 2.983 5.35 6.498 6.801l1.528.688c5.352 2.141 10.013 4.815 10.013 10.93 0 6.573-5.732 11.16-13.605 11.16-5.045 0-8.713-1.91-10.088-2.676-.459-1.376-1.302-5.809-1.836-9.707l2.217-.535c1.377 4.433 4.892 10.394 10.701 10.394 3.668 0 6.113-2.52 6.191-5.96 0-3.899-2.906-5.58-6.115-6.956l-1.91-.84c-4.205-1.835-9.63-4.664-9.63-10.472 0-6.42 4.89-10.853 12.991-10.853 3.594 0 6.575 1.07 8.026 1.53.459 2.292.765 5.043 1.3 9.018zM592.651-311.98v-2.141c4.817-.458 5.352-.763 5.352-6.19v-18.879c0-5.503-.535-5.809-5.352-6.19v-2.217h17.58v2.217c-4.891.381-5.35.687-5.35 6.19v18.879c0 5.427.382 5.732 5.35 6.19v2.141zM628.878-320.54c0 4.737 1.225 5.961 5.351 5.961 8.637 0 13.452-5.962 13.452-15.362 0-11.006-5.961-15.134-14.063-15.134-2.14 0-3.595.383-4.052.917-.459.46-.688 1.529-.688 3.515zm5.731-27.058c6.576 0 12.308 1.3 16.205 4.892 2.75 2.445 4.74 6.65 4.74 11.694 0 13.07-10.625 19.033-23.313 19.033h-15.744v-2.142c4.969-.381 5.502-.84 5.502-6.19v-18.878c0-5.58-.457-5.886-5.043-6.191v-2.218zM676.493-339.725h-.152l-5.045 13.223h10.166zm5.121 27.745v-2.141l1.451-.228c2.217-.307 2.676-.918 1.682-3.593l-2.139-5.503h-12.382a59 59 0 0 0-1.834 5.274c-.84 2.828-.077 3.44 2.14 3.745l1.834.305v2.141H658.38v-2.141c3.516-.458 4.968-.917 7.183-6.343l11.465-27.592 2.676-.611 11.998 29.426c1.682 4.28 3.135 4.815 6.65 5.12v2.141zM714.935-320.54c0 4.737 1.224 5.961 5.351 5.961 8.637 0 13.451-5.962 13.451-15.362 0-11.006-5.96-15.134-14.062-15.134-2.14 0-3.595.383-4.051.917-.46.46-.69 1.529-.69 3.515zm5.732-27.058c6.574 0 12.307 1.3 16.204 4.892 2.75 2.445 4.74 6.65 4.74 11.694 0 13.07-10.626 19.033-23.313 19.033h-15.744v-2.142c4.968-.381 5.502-.84 5.502-6.19v-18.878c0-5.58-.457-5.886-5.043-6.191v-2.218zM337.991-258.54c0 4.737 1.223 5.962 5.35 5.962 8.636 0 13.453-5.962 13.453-15.363 0-11.006-5.963-15.133-14.065-15.133-2.138 0-3.592.382-4.05.917-.459.459-.688 1.527-.688 3.514zm5.732-27.058c6.573 0 12.305 1.3 16.204 4.893 2.751 2.444 4.738 6.648 4.738 11.693 0 13.07-10.623 19.033-23.311 19.033H325.61v-2.141c4.967-.383 5.502-.842 5.502-6.192v-18.877c0-5.58-.459-5.885-5.045-6.192v-2.217zM400.51-259.534c-.458 2.369-1.604 8.024-2.063 9.555h-30.038v-2.142c5.35-.458 5.733-.917 5.733-6.344v-18.724c0-5.503-.383-5.886-5.197-6.192v-2.216h28.05c.077 1.529.305 5.274.611 8.867l-2.14.15c-.687-2.367-1.3-3.59-2.141-4.585-.992-1.299-2.293-1.834-6.265-1.834h-3.822c-2.065 0-2.217.153-2.217 2.218v10.851h5.349c4.586 0 4.969-.458 5.657-4.203h2.216v11.618h-2.216c-.688-3.822-1.071-4.432-5.657-4.432h-5.35v8.636c0 2.98.384 4.432 1.3 4.967.993.613 2.752.841 5.886.841 3.744 0 5.655-.459 7.032-1.986.993-.993 1.986-2.676 2.98-5.352zM457.987-267.91c-3.906.71-4.172.977-4.172 5.325v5.415c0 2.219.178 4.35.534 5.682-4.262 1.063-10.12 2.66-15.002 2.66-14.825 0-24.946-8.43-24.946-21.3 0-14.824 12.52-22.19 25.657-22.19 5.591 0 10.65 1.33 12.87 1.863.266 2.13.532 5.858 1.153 11.273l-2.484.265c-1.598-7.722-6.48-10.562-13.225-10.562-8.521 0-15.537 6.658-15.537 18.197 0 9.675 5.328 19.615 16.957 19.615 3.018 0 6.834-.799 6.834-4.349v-6.39c0-4.262-.443-4.794-7.545-5.504v-2.396h18.906zM479.464-270.483c2.484 0 4.615-.356 6.48-1.421 2.307-1.42 3.461-4.35 3.461-7.456 0-6.479-4.35-9.054-9.498-9.054-3.728 0-4.082.799-4.082 3.462v14.469zm24.676 21.035h-2.043c-7.1 0-9.94-1.951-12.604-5.769-2.04-2.84-4.437-7.012-5.68-9.231-1.597-2.663-2.574-3.283-5.947-3.283h-2.04v8.253c0 6.125.53 6.657 6.39 7.101v2.398H462.42v-2.398c5.86-.444 6.392-.887 6.392-7.1v-22.102c0-6.479-.533-6.746-6.125-7.189v-2.397h19.616c4.437 0 7.723.533 10.384 2.219 2.575 1.51 4.528 4.438 4.528 8.432 0 5.769-4.172 9.053-8.432 10.65.977 1.776 3.817 6.392 5.858 9.233 2.218 3.195 3.373 4.615 4.883 6.212 1.507 1.598 3.283 2.398 4.88 2.93zM526.948-282.466h-.177l-5.858 15.532h11.895zm6.125 32.486v-2.396l1.598-.179c2.662-.354 3.195-1.064 2.04-4.26l-2.574-6.658H519.67c-.711 1.777-1.422 3.907-2.131 6.304-1.064 3.461-.178 4.17 2.397 4.525l2.13.268v2.396h-16.066v-2.396c4.082-.444 5.77-1.066 8.432-7.545l13.048-31.865 2.752-.621 13.668 33.995c2.043 5.237 3.729 5.768 7.723 6.036v2.396zM601.593-288.769c-4.262.355-5.86 1.065-6.125 3.906-.266 2.308-.533 5.237-.533 11.362v23.964h-2.928l-26.717-32.219-.09.089v13.935c0 6.124.178 9.408.533 11.45.266 2.75 1.954 3.55 6.834 3.906v2.396H555.26v-2.396c4.084-.356 5.681-1.155 6.037-3.818.266-2.13.531-5.414.531-11.538v-11.894c0-7.368-1.42-8.7-7.545-9.143v-2.395h12.073l25.119 29.024h.177v-11.36c0-6.126-.177-9.055-.443-11.274-.355-2.93-1.775-3.64-6.836-3.995v-2.395h17.22zM623.07-282.466h-.176l-5.86 15.532h11.895zm6.124 32.486v-2.396l1.598-.179c2.664-.354 3.195-1.064 2.041-4.26l-2.573-6.658h-14.468c-.71 1.777-1.42 3.907-2.13 6.304-1.065 3.461-.179 4.17 2.396 4.525l2.13.268v2.396h-16.066v-2.396c4.084-.444 5.77-1.066 8.434-7.545l13.047-31.865 2.751-.621 13.67 33.995c2.041 5.237 3.727 5.768 7.721 6.036v2.396zM665.228-259.92c0 5.68 1.507 7.01 6.478 7.01 10.563 0 16.066-7.01 16.066-17.84 0-12.959-7.101-17.574-16.865-17.574-2.575 0-4.26.442-4.88 1.064-.446.621-.8 1.777-.8 4.173zm6.746-31.244c7.632 0 14.2 1.509 18.638 5.592 3.196 2.927 5.504 7.72 5.504 13.58 0 15.177-12.25 22.012-26.717 22.012h-17.841v-2.396c5.858-.444 6.48-.978 6.48-7.278v-21.747c0-6.569-.533-6.923-5.947-7.368v-2.395zM718.66-282.466h-.179l-5.857 15.532h11.893zm6.124 32.486v-2.396l1.598-.179c2.662-.354 3.195-1.064 2.04-4.26l-2.573-6.658h-14.47c-.708 1.777-1.419 3.907-2.128 6.304-1.066 3.461-.178 4.17 2.396 4.525l2.13.268v2.396h-16.065v-2.396c4.082-.444 5.77-1.066 8.432-7.545l13.048-31.865 2.75-.621 13.67 33.995c2.041 5.237 3.729 5.768 7.723 6.036v2.396zM152.983-252.315c-2.081-.656-4.44-1.393-8.983.375v2.103l.597-.238c3.984-1.574 5.836-.993 7.798-.373 1.885.593 3.843 1.193 7.255-.032v-2.081l-.482.18c-2.916 1.094-4.431.618-6.185.066M152.983-247.844c-2.078-.655-4.437-1.393-8.983.376v2.103l.597-.236c3.984-1.58 5.84-.994 7.798-.377 1.888.594 3.843 1.197 7.255-.026v-2.08l-.48.18c-2.918 1.089-4.43.613-6.187.06M227.407-252.315c-1.758.552-3.272 1.028-6.188-.066l-.483-.18v2.08c3.413 1.226 5.372.626 7.259.033 1.958-.62 3.814-1.201 7.794.373l.598.238v-2.103c-4.546-1.768-6.902-1.03-8.98-.375M227.399-247.844c-1.754.553-3.265 1.029-6.181-.06l-.482-.18v2.08c3.413 1.223 5.367.62 7.256.026 1.961-.617 3.812-1.203 7.797.377l.598.236v-2.103c-4.55-1.77-6.906-1.031-8.988-.376"/><path fill="#231f20" d="m247.391-309.533-1.032.608-.544.32-.656.3c-.467.216-.986.467-1.6.653l-.94.321q-.502.12-1.035.243c-.7.202-1.474.238-2.254.362-.792.014-1.604.1-2.431.012-.828-.014-1.654-.183-2.481-.305-.81-.216-1.628-.386-2.388-.7-.785-.244-1.493-.64-2.2-.96-.403-.257-.81-.48-1.195-.718.051-.342.11-.679.152-1.023a19.656 19.656 0 0 0 6.307 1.155c3.375.06 6.717-.764 9.75-2.434a19.5 19.5 0 0 0 2.528-1.65c.052-.044.102-.086.16-.128.368-.337.604-.819.615-1.363a1.883 1.883 0 0 0-2.42-1.839q-.109.044-.215.082a1.8 1.8 0 0 0-.338.197q-.087.07-.168.132-.929.706-1.973 1.28a15.75 15.75 0 0 1-12.066 1.331 15.5 15.5 0 0 1-1.89-.683q.01-.443.01-.89l-.001-.147c.456.085.928.154 1.402.247.854.057 1.731.18 2.628.126.895.02 1.796-.12 2.695-.218.886-.192 1.777-.343 2.615-.644.86-.23 1.646-.623 2.423-.94.732-.418 1.48-.748 2.1-1.21q.475-.325.924-.629l.804-.668c.528-.408.956-.859 1.337-1.253l.534-.547.396-.493.747-.936a.305.305 0 0 0-.034-.414.3.3 0 0 0-.427.023s-.292.324-.8.892l-.423.468-.535.485c-.379.348-.798.744-1.328 1.107q-.385.284-.798.591l-.913.544c-.605.406-1.333.672-2.038 1.026-.75.255-1.5.58-2.315.747-.793.238-1.632.326-2.457.46-.836.04-1.669.124-2.489.056-.821.004-1.616-.16-2.387-.25-.589-.157-1.174-.26-1.719-.424-.019-.346-.035-.693-.063-1.037a19.5 19.5 0 0 0 5.006-.29 19.47 19.47 0 0 0 12.465-8.058 2 2 0 0 0 .098-.132c.217-.346.331-.764.288-1.204a1.89 1.89 0 0 0-2.071-1.684 1.85 1.85 0 0 0-.756.251c-.204.121-.377.28-.526.463q-.062.08-.115.167a15.76 15.76 0 0 1-10.076 6.505 15.8 15.8 0 0 1-4.793.165c-.058-.324-.132-.644-.198-.967.684-.047 1.386-.197 2.11-.294.828-.224 1.697-.392 2.528-.73.856-.272 1.66-.697 2.481-1.08.775-.468 1.57-.899 2.266-1.456.738-.496 1.355-1.121 1.989-1.673.557-.632 1.157-1.185 1.592-1.824l.673-.895q.284-.463.545-.892c.367-.556.626-1.122.859-1.618l.329-.69.213-.595.404-1.127a.302.302 0 0 0-.563-.22l-.468 1.102-.248.58-.348.632c-.246.451-.515.962-.9 1.477q-.272.393-.564.817l-.687.81c-.442.58-1.044 1.068-1.595 1.631-.628.482-1.233 1.034-1.95 1.456-.673.481-1.438.836-2.175 1.23-.78.307-1.538.657-2.337.857-.776.271-1.581.372-2.34.536-.775.054-1.516.194-2.228.156-.083-.325-.158-.652-.248-.973a19.7 19.7 0 0 0 5.955-2.563 19.48 19.48 0 0 0 8.312-11.374c.057-.204.115-.408.146-.619a1.2 1.2 0 0 0-.004-.398 1.894 1.894 0 0 0-2.698-1.435q-.101.055-.201.114c-.366.232-.66.58-.78.993-.03.11-.052.222-.08.331a15.75 15.75 0 0 1-6.731 9.231 15.9 15.9 0 0 1-5.124 2.148c-.117-.3-.246-.594-.37-.89q.012-.006.023-.009.5-.244 1.032-.505c.723-.315 1.397-.81 2.133-1.245.674-.528 1.409-1.02 2.043-1.658.68-.582 1.258-1.287 1.863-1.96.531-.733 1.096-1.44 1.52-2.223.486-.745.81-1.56 1.179-2.316.268-.799.604-1.543.756-2.3q.141-.56.27-1.087l.155-1.034c.12-.656.139-1.278.16-1.825l.034-.764-.034-.63-.067-1.197a.306.306 0 0 0-.302-.286.304.304 0 0 0-.304.303l-.001 1.198-.002.631q-.036.332-.075.717c-.05.512-.1 1.087-.252 1.71l-.201.973-.317 1.014c-.181.706-.545 1.39-.835 2.124-.39.69-.731 1.433-1.226 2.1-.434.707-1 1.33-1.525 1.98-.598.588-1.161 1.206-1.818 1.702-.61.551-1.311.958-1.946 1.404-.693.352-1.321.77-1.992 1.012l-.483.204c.198-1.118.707-1.807 1.16-2.297a19.8 19.8 0 0 0 3.064-3.495 19.5 19.5 0 0 0 3.127-14.686c-.031-.17-.12-.627-.133-.694a1.888 1.888 0 0 0-2.202-1.503 1.89 1.89 0 0 0-1.504 2.197v.004c.003.01.003.016.008.023.045.215.097.433.137.654a15.76 15.76 0 0 1-2.526 11.876q-.415.605-.88 1.16a15.9 15.9 0 0 1-6.355 4.544c.097-.246.176-.496.254-.731.065-.32.153-.614.174-.908q.062-.431.052-.809c.012-.247-.012-.474-.032-.67a3 3 0 0 0-.07-.508l-.086-.43-.063.432c-.014.136-.047.3-.1.483-.045.184-.094.389-.183.603a4.5 4.5 0 0 1-.289.671c-.101.233-.268.454-.403.686-.174.216-.327.446-.532.643-.182.211-.407.387-.612.57-.23.158-.443.325-.682.446-.222.141-.471.23-.689.332-.161.046-.309.097-.455.14-.668.086-1.347.136-2.037.136q-.022 0-.041.003h-.026a2 2 0 0 0-.392.031l-.024.002a3 3 0 0 0-.347.073 3 3 0 0 0-.286.09l-.036.012a5 5 0 0 0-.299.132l-.003.003a3.1 3.1 0 0 0-1.038.864 3.08 3.08 0 0 0-.653 1.898c0 .541.148 1.045.388 1.486a6.65 6.65 0 0 1 1.113 3.15v.002c.017.198.03.396.03.6 0 3.676-2.982 6.624-6.655 6.624h-.637c-.747 0-6.167-.462-6.167-8.876q.002-.286.014-.57l.263.204c.24.152.465.303.716.416.231.13.484.213.717.304.245.062.466.143.694.17.113.018.215.036.321.056.107.005.205.012.303.02.19.019.37.01.52.003q.117-.004.215-.009l.181-.025.337-.047-.33-.067q-.081-.014-.173-.036-.092-.026-.197-.059c-.145-.043-.3-.088-.458-.166-.088-.035-.168-.072-.256-.11q-.12-.066-.259-.14c-.176-.088-.34-.225-.517-.342-.155-.14-.331-.27-.476-.436-.157-.148-.284-.33-.416-.494-.118-.186-.239-.36-.322-.547-.104-.177-.164-.375-.232-.55-.044-.186-.111-.353-.128-.526q-.019-.124-.039-.24a4 4 0 0 0-.015-.228c-.016-.15 0-.261.007-.355q.008-.07.008-.131.012-.096.017-.176.009-.095.016-.164c1.228-4.996 4.576-9.146 9.027-11.471q-.009.03-.016.062c-.066.258-.084.525-.112.77 0 .255-.022.49.01.716q.014.168.029.326.03.152.055.298c.033.189.085.359.13.503q.034.111.06.208a2 2 0 0 1 .07.167l.135.313-.021-.336q-.006-.082-.007-.176.001-.097.007-.208a3 3 0 0 1 .042-.486l.042-.271q.04-.137.07-.285c.044-.194.136-.388.202-.587.095-.192.176-.39.3-.572.1-.19.246-.36.376-.532.147-.156.282-.317.447-.447.145-.143.324-.248.468-.363.17-.088.318-.194.476-.255l.051-.022a17.8 17.8 0 0 1 4.172-.797c.246-.032.806-.05 1.215-.05 1.585 0 3.124.156 4.582.547 1.005.234 1.324.512 1.895 1.316 1.915-4.18-1.606-6.648-3.779-6.648 0 0-1.14-1.994-7.46-1.994-3.52 0-5.902 1.835-7.374 2.26-1.44.424-5.66.068-5.66.068 1.05 1.106 1.507 1.884 2.148 2.314q-.409.363-.844.745c-.032.02-.059.042-.096.062q-.098.06-.204.13c-.077.039-.155.074-.235.116-.164.09-.346.139-.537.218-.194.046-.4.117-.612.14-.213.045-.434.049-.655.067-.222-.01-.45-.006-.673-.044-.226-.018-.44-.085-.648-.13-.204-.071-.412-.124-.593-.216a10 10 0 0 0-.275-.123q-.121-.068-.235-.137c-.157-.085-.292-.184-.412-.268l-.165-.123q-.072-.064-.131-.117l-.25-.223.296.423c.042.049.092.1.141.159.099.113.21.247.352.37q.107.1.218.2.12.097.255.195c.168.14.373.246.58.381.219.101.441.225.687.308.24.098.496.156.758.226.182.03.365.06.55.08-1.36 1.278-2.772 2.773-4.035 4.698-1.622 2.187-3.017 4.547-4.046 6.95-1.028-2.394-2.41-4.747-4.028-6.927-1.265-1.935-2.682-3.437-4.049-4.72.185-.021.37-.051.552-.081.261-.07.519-.128.758-.226.246-.083.468-.207.687-.308.204-.135.412-.24.58-.381q.134-.098.255-.194.112-.102.217-.2c.141-.124.25-.258.35-.371.048-.06.098-.11.141-.16l.104-.146.195-.276-.25.223-.134.117c-.05.039-.106.077-.166.123-.119.084-.249.183-.408.268q-.119.068-.24.137l-.271.123c-.176.092-.39.145-.592.217-.214.044-.423.11-.65.129-.22.038-.45.035-.67.044-.226-.018-.444-.022-.659-.066-.214-.024-.416-.095-.609-.141-.19-.08-.373-.128-.535-.218-.082-.042-.158-.077-.236-.116l-.208-.13c-.035-.02-.06-.04-.09-.06q-.436-.381-.847-.747c.645-.43 1.1-1.208 2.149-2.314 0 0-4.223.356-5.665-.067-1.468-.426-3.848-2.261-7.37-2.261-6.322 0-7.461 1.994-7.461 1.994-2.171 0-5.693 2.468-3.778 6.648.57-.804.892-1.082 1.892-1.316 1.465-.391 3-.529 4.586-.529.408 0 .838-.003 1.214.032 1.44.1 2.834.37 4.161.792l.058.027c.162.06.308.167.48.255.151.115.323.22.467.363.167.13.296.29.452.447.124.173.267.342.373.532.123.183.204.38.3.572.07.199.161.393.197.587q.036.148.074.285c.018.092.027.183.042.27.032.177.038.34.042.487.003.074.011.143.011.208l-.011.176-.022.336.135-.313q.027-.077.067-.167l.066-.208c.043-.144.096-.314.127-.503q.026-.146.057-.298c.007-.106.021-.213.028-.326.032-.226.011-.461.011-.715-.032-.246-.046-.513-.114-.771q-.006-.031-.014-.062c4.444 2.32 7.79 6.46 9.022 11.444l.02.19c.006.054.006.114.016.177q.001.06.007.13c.008.095.026.206.004.356l-.012.229q-.019.115-.042.239c-.017.173-.08.34-.127.527-.07.174-.128.372-.231.549-.084.188-.205.361-.316.547-.135.164-.262.346-.42.494-.144.167-.318.296-.478.436-.174.117-.34.254-.515.342q-.137.074-.257.14a6 6 0 0 0-.254.11c-.161.078-.318.123-.458.166-.073.02-.137.042-.2.059-.06.015-.122.025-.172.036l-.331.067.338.047.178.025c.069.004.137.006.216.009.15.007.33.016.522-.003.093-.008.196-.015.301-.02q.155-.03.322-.055c.228-.028.446-.11.693-.171.231-.091.485-.174.72-.304.249-.113.47-.264.71-.416l.27-.21q.013.287.015.576c0 8.414-5.42 8.876-6.17 8.876h-.638c-3.674 0-6.653-2.948-6.653-6.624 0-.204.015-.402.028-.6v-.003a6.64 6.64 0 0 1 1.112-3.149c.245-.44.389-.945.389-1.486a3.11 3.11 0 0 0-1.69-2.762l-.005-.003a4 4 0 0 0-.299-.132c-.01-.005-.025-.009-.035-.012a3 3 0 0 0-.284-.09q-.03-.007-.047-.014a5 5 0 0 0-.3-.059h-.016a1.7 1.7 0 0 0-.407-.034l-.022.001q-.02-.002-.037-.003c-.697 0-1.38-.05-2.053-.138-.144-.042-.289-.093-.447-.138-.218-.103-.467-.19-.689-.332-.239-.12-.45-.287-.683-.447-.205-.18-.429-.357-.612-.569-.204-.197-.357-.426-.53-.642-.137-.233-.303-.453-.403-.687a4 4 0 0 1-.29-.67c-.089-.215-.137-.42-.183-.604a3 3 0 0 1-.1-.483l-.063-.432s-.03.156-.086.43a3 3 0 0 0-.07.507c-.02.197-.043.424-.033.671q-.008.377.053.81c.021.293.108.586.174.907.077.234.157.484.253.729a15.9 15.9 0 0 1-6.345-4.536 16 16 0 0 1-.882-1.166 15.77 15.77 0 0 1-2.39-12.53q.003-.01.007-.02v-.007a1.89 1.89 0 0 0-1.504-2.197 1.89 1.89 0 0 0-2.203 1.503l-.128.694a19.5 19.5 0 0 0 3.12 14.686 19.7 19.7 0 0 0 3.07 3.495c.45.49.956 1.179 1.152 2.295l-.478-.202c-.672-.242-1.299-.66-1.992-1.013-.635-.446-1.336-.853-1.947-1.404-.656-.496-1.218-1.114-1.817-1.701-.524-.65-1.091-1.275-1.524-1.981-.497-.667-.837-1.41-1.227-2.099-.29-.734-.653-1.418-.835-2.124q-.162-.522-.315-1.014-.107-.505-.204-.972c-.152-.624-.2-1.199-.251-1.711l-.076-.718q0-.344-.002-.631c0-.76-.002-1.197-.002-1.197a.302.302 0 0 0-.604-.017l-.067 1.196-.035.631.035.764c.02.547.039 1.17.16 1.825l.154 1.033q.132.527.27 1.086c.153.758.49 1.502.756 2.3.37.756.695 1.573 1.18 2.317.424.783.987 1.49 1.52 2.224.604.672 1.182 1.377 1.863 1.959.635.637 1.368 1.131 2.043 1.658.735.435 1.408.931 2.133 1.245l1.031.506.023.008c-.124.297-.252.591-.37.891a15.8 15.8 0 0 1-5.123-2.148 15.74 15.74 0 0 1-6.731-9.23c-.03-.11-.05-.223-.08-.332-.12-.414-.414-.761-.777-.993l-.204-.114a1.89 1.89 0 0 0-2.697 1.435 1.4 1.4 0 0 0-.011.398c.032.211.1.415.152.62a19.47 19.47 0 0 0 8.315 11.373 19.6 19.6 0 0 0 5.955 2.564c-.092.32-.167.647-.25.972-.713.038-1.455-.102-2.23-.156-.759-.164-1.564-.265-2.34-.535-.799-.2-1.558-.55-2.337-.859-.737-.392-1.502-.747-2.177-1.229-.716-.422-1.32-.973-1.948-1.455-.552-.563-1.154-1.051-1.596-1.632q-.353-.417-.686-.81l-.565-.817c-.385-.515-.652-1.026-.897-1.477l-.35-.632-.248-.58-.469-1.103a.302.302 0 0 0-.563.22l.405 1.128.213.594.33.691c.231.496.49 1.062.857 1.62q.264.427.545.89l.674.895c.435.64 1.034 1.192 1.593 1.825.634.551 1.25 1.176 1.987 1.673.697.556 1.492.987 2.268 1.456.819.383 1.625.807 2.48 1.078.83.34 1.7.507 2.528.731.725.097 1.426.247 2.11.294-.066.323-.14.643-.196.968a15.9 15.9 0 0 1-4.798-.166 15.76 15.76 0 0 1-10.189-6.672 2 2 0 0 0-.52-.463q-.107-.051-.209-.104a1.9 1.9 0 0 0-.557-.147 1.89 1.89 0 0 0-2.067 1.684c-.045.44.067.858.29 1.204.027.047.066.09.095.132a19.48 19.48 0 0 0 12.466 8.057 19.413 19.413 0 0 0 5.005.291c-.026.344-.043.691-.06 1.037-.545.165-1.129.267-1.719.424-.77.09-1.565.254-2.387.25-.82.068-1.652-.017-2.489-.057-.825-.133-1.664-.22-2.458-.459-.813-.167-1.564-.492-2.314-.746-.705-.355-1.433-.621-2.039-1.027l-.913-.544-.797-.59c-.532-.364-.95-.76-1.329-1.108l-.536-.485-.422-.468c-.507-.568-.799-.892-.799-.892a.304.304 0 0 0-.414-.035.304.304 0 0 0-.047.427s.27.34.747.936q.18.223.394.492.248.254.534.548c.381.393.81.844 1.338 1.253l.804.667.927.63c.618.462 1.365.792 2.097 1.21.78.316 1.565.708 2.423.94.84.302 1.731.451 2.617.644.898.098 1.8.237 2.695.217.896.053 1.773-.07 2.63-.126.472-.093.944-.161 1.4-.246l-.002.146c0 .298.008.594.011.89-.609.266-1.24.497-1.892.683a15.75 15.75 0 0 1-12.069-1.33q-1.04-.575-1.969-1.28c-.056-.042-.109-.086-.17-.133a1.6 1.6 0 0 0-.338-.197 6 6 0 0 1-.21-.082 1.884 1.884 0 0 0-1.806 3.202q.077.064.157.127a20 20 0 0 0 2.525 1.651 19.5 19.5 0 0 0 9.752 2.434c1.734-.027 3.47-.289 5.177-.784.381-.11.758-.237 1.131-.37.042.342.101.68.151 1.02-.384.24-.793.464-1.196.72-.707.32-1.414.716-2.198.96-.762.314-1.58.484-2.39.7-.826.123-1.652.292-2.48.305-.827.088-1.64.002-2.432-.011-.779-.124-1.554-.16-2.253-.363q-.532-.126-1.033-.242l-.94-.322c-.616-.186-1.133-.437-1.6-.654l-.656-.3-.544-.319c-.658-.386-1.033-.608-1.033-.608a.305.305 0 0 0-.406.093.306.306 0 0 0 .084.42s.363.241.995.666l.527.35q.311.168.674.36c.481.26 1.026.56 1.653.79q.466.19.968.393l1.073.32c.73.254 1.54.342 2.365.52.837.066 1.706.201 2.592.163.891.032 1.787-.094 2.688-.178.886-.178 1.787-.317 2.636-.607.87-.222 1.668-.603 2.465-.916q.382-.207.763-.397c.07.354.133.712.214 1.063a15.75 15.75 0 0 1-9.1 3.436 15.8 15.8 0 0 1-6.682-1.113c-.095-.036-.19-.08-.285-.117l-.047-.019a1.881 1.881 0 0 0-2.39 2.212c.14.635.588 1.123 1.151 1.346a19.6 19.6 0 0 0 8.436 1.443 19.43 19.43 0 0 0 10.008-3.346c.11.319.236.63.351.945-.289.298-.598.593-.894.914-.603.488-1.187 1.051-1.883 1.487-.658.497-1.406.87-2.134 1.284-.769.326-1.525.7-2.322.924-.778.294-1.586.42-2.357.606-.784.078-1.542.241-2.27.223l-1.063.028q-.513-.039-.989-.072c-.644-.025-1.209-.136-1.715-.227l-.712-.124q-.332-.094-.606-.17l-1.154-.327a.303.303 0 0 0-.18.577s.411.144 1.131.393l.597.205q.347.081.744.177c.533.13 1.136.282 1.8.344l1.037.135 1.118.036c.771.062 1.578-.06 2.421-.098.827-.148 1.7-.238 2.55-.5.87-.195 1.704-.544 2.556-.855.811-.397 1.647-.76 2.393-1.257.787-.434 1.463-1.007 2.155-1.51q.238-.225.48-.44c.14.323.271.65.42.968-.247.321-.5.64-.773.941a15.75 15.75 0 0 1-10.92 5.305 16.3 16.3 0 0 1-3.28-.145 1.9 1.9 0 0 0-.574.042 1.89 1.89 0 0 0-1.408 2.268 1.89 1.89 0 0 0 1.376 1.397c.127.03.251.051.382.052a19.67 19.67 0 0 0 7.04-.348 19.57 19.57 0 0 0 10.037-5.927c.18.302.375.595.561.892-.214.356-.448.711-.665 1.088-.478.611-.922 1.29-1.504 1.87-.529.631-1.176 1.161-1.795 1.728-.673.49-1.328 1.023-2.056 1.42-.693.46-1.451.761-2.16 1.115-.748.25-1.45.578-2.166.723l-1.029.263-.98.152c-.633.12-1.21.137-1.724.162q-.386.018-.72.038l-.63-.031-1.197-.062a.306.306 0 0 0-.317.27.304.304 0 0 0 .27.335l1.19.129q.286.03.628.067l.766.006c.546.008 1.168.021 1.831-.065l1.04-.1q.532-.105 1.098-.214c.766-.113 1.526-.41 2.338-.637.774-.328 1.606-.609 2.374-1.055.805-.383 1.54-.91 2.302-1.404.702-.567 1.436-1.107 2.053-1.758.67-.6 1.2-1.308 1.762-1.955q.171-.255.347-.5c.213.302.42.61.64.906a16 16 0 0 1-2.445 3.858 15.75 15.75 0 0 1-10.456 5.468q-.172.017-.344.035-.05.006-.103.02a1.88 1.88 0 0 0-1.362 2.29 1.876 1.876 0 0 0 2.127 1.397c1-.098 1.975-.265 2.916-.506 5.303-1.342 9.688-4.832 12.273-9.423.244.266.506.514.76.77-.183.668-.445 1.3-.662 1.93-.357.703-.628 1.428-1.035 2.033q-.284.469-.549.909-.308.413-.595.796c-.365.528-.764.945-1.113 1.322l-.488.533-.47.42-.896.795a.303.303 0 0 0 .39.464s.343-.27.938-.742l.496-.394.55-.531c.395-.379.848-.805 1.26-1.33q.321-.386.67-.802l.633-.923c.467-.616.8-1.361 1.221-2.091.187-.452.396-.909.587-1.378 1.213 1.489 2.412 3.467 2.6 5.02a5 5 0 0 0 .074.447 24.47 24.47 0 0 0 7.28 14.124c-4.028 3.568-11.07 9.553-14.192 10.699-2.835 1.027-4.338.562-6.065.018-2.079-.654-4.443-1.391-8.989.38v2.105l.598-.239c3.983-1.582 5.84-.999 7.802-.379 1.866.588 3.804 1.182 7.157.007q.006-.002.014-.003c2.51-.721 8.494-3.832 11.939-5.59a66 66 0 0 1 2.715-1.32c1.14-.505 2.271-1.105 3.67-1.105q.556.001 1.081.11c.162.033.327.076.482.126.053.014.1.034.148.05q.165.052.32.115l.17.075q.143.063.275.135.091.044.168.093.135.075.257.155c.053.034.11.07.162.108.081.057.163.12.244.18.045.04.095.075.142.116q.124.108.245.223c.035.035.077.069.113.104q.344.346.616.748l.086.133c.058.088.115.185.169.28a2 2 0 0 1 .084.167c.048.092.091.18.132.275q.044.089.08.183.058.138.1.28c.023.065.044.126.062.192.031.096.055.199.076.296q.027.095.042.192a6 6 0 0 1 .074.503 5 5 0 0 1 .004 1.007q-.012.074-.018.143c-.013.121-.035.237-.052.354q-.014.07-.029.138a5 5 0 0 1-.115.453c-.007.023-.018.05-.021.069-.046.125-.088.248-.138.368q-.031.08-.067.155a6 6 0 0 1-.133.278q-.04.076-.077.148-.103.19-.227.368c-.027.048-.063.09-.096.136q-.08.115-.169.225-.07.09-.147.177-.068.079-.14.155l-.036.038c-.036.036-.066.071-.101.106l-.097.09c-.059.053-.114.106-.175.158a.1.1 0 0 1-.018.018c-.074.057-.145.118-.219.174q-.082.064-.164.123c-.072.047-.138.094-.212.141l-.162.103a6 6 0 0 1-.672.33q-.109.043-.218.084-.145.054-.294.098-.1.03-.203.055a6 6 0 0 1-.335.078l-.176.027q-.189.031-.38.047a5 5 0 0 1-.44.023l-.071-.001-.055.007c-.107-.002-.217-.01-.333-.014a4.5 4.5 0 0 1-1.149-.275 4.5 4.5 0 0 1-1.154-.685l-.267-.236q-.122-.135-.247-.268c-.087-.09-.138-.183-.215-.274-.035-.05-.07-.081-.107-.146l-.109-.185-.111-.19-.015-.023-.015-.032-.034-.08c-.057-.103-.088-.216-.13-.327a2.8 2.8 0 0 1-.105-.702 2.57 2.57 0 0 1 .393-1.39c.126-.208.282-.4.468-.56.088-.09.176-.148.27-.22.04-.036.114-.07.168-.107l.09-.052.022-.012.007-.004.035-.013a1.5 1.5 0 0 1 .415-.128 1.53 1.53 0 1 0 2.243 1.095 1.2 1.2 0 0 0-.076-.4l-.015-.049-.007-.022-.004-.007c.01.017-.013-.031-.013-.028l-.003-.01-.04-.074-.08-.152c-.04-.096-.138-.213-.23-.324-.088-.122-.197-.208-.31-.297-.052-.042-.105-.095-.168-.13l-.195-.102a2.25 2.25 0 0 0-1.823-.102l-.06.02-.071.029-.094.042c-.061.032-.121.054-.195.096-.143.085-.295.168-.42.269a3.5 3.5 0 0 0-.7.689 3.6 3.6 0 0 0-.736 1.881c-.034.349-.01.7.05 1.045.043.168.078.345.14.507l.046.123.018.06.008.016c-.011-.021.02.042.017.037l.003.007.01.025.093.197c.098.241.306.581.486.846q.141.194.288.384.165.179.32.352c.102.102.216.184.324.275l-.295.032c-1.137.126-2.38.288-3.676.643-1.286.36-2.659.94-3.8 1.912a7.8 7.8 0 0 0-1.495 1.643c-.049.07-.09.125-.141.208l-.154.267c-.102.18-.215.363-.281.537-.072.177-.159.346-.219.53l-.173.548a6.85 6.85 0 0 0 .31 4.392c.292.67.69 1.282 1.158 1.81l.367.382.395.34.098.085c.06.048.025.016.038.03l.012.01.024.015.049.033.19.13c.152.092.34.207.5.28 1.318.629 2.837.488 3.928-.175.549-.33 1-.764 1.32-1.263a2.62 2.62 0 0 0 .36-1.748 2.55 2.55 0 0 0-.709-1.429c-.038-.046-.088-.087-.137-.127l-.067-.06-.035-.032-.035-.028-.011-.005-.018-.009-.133-.084a.7.7 0 0 0-.162-.083c-.126-.052-.254-.109-.377-.12l-.18-.029c-.06-.002-.115.001-.176.003-.182.002-.36.04-.517.098q-.031.013-.068.027-.048.021-.097.044c-.487.23-.835.697-.881 1.27a1.53 1.53 0 0 0 1.412 1.64 1.53 1.53 0 0 0 1.409-.725c-.01.11-.028.22-.064.333a2 2 0 0 1-.105.285l-.074.135-.077.113c-.28.357-.657.658-1.082.862-.852.416-1.944.395-2.79-.11-.112-.063-.18-.118-.282-.188l-.175-.145-.046-.037-.022-.022-.01-.007.018.013-.07-.074-.282-.289-.254-.32a5 5 0 0 1-.747-1.436 4.98 4.98 0 0 1 .053-3.184l.158-.366c.049-.123.127-.234.184-.35.06-.126.134-.212.197-.306l.095-.146c.039-.053.102-.121.147-.18.346-.432.754-.79 1.192-1.092.862-.614 1.894-.948 2.954-1.147 1.067-.19 2.17-.247 3.25-.264 1.083-.023 2.145-.014 3.167-.056 1.02-.042 2.008-.139 2.916-.339q.274-.059.532-.13c-1.024.757-2.12 1.61-3.16 2.666-1.027 1.067-2.011 2.379-2.553 3.937a8.7 8.7 0 0 0-.507 2.394c-.006.095-.017.174-.017.278v.342c.004.223.004.456.035.658.028.21.042.421.088.627l.138.617a7.6 7.6 0 0 0 2.75 4.022 7.6 7.6 0 0 0 2.128 1.09q.286.084.566.161.284.052.574.107l.145.024.045.006h.022l.03.006.07.005.256.019c.197.003.44.007.637-.014a5 5 0 0 0 .433-.06q.043-.008.09-.017.204-.043.407-.103c.02-.008.046-.014.066-.022q.191-.059.37-.133.024-.01.046-.02.19-.079.374-.177l.077-.042a4 4 0 0 0 .387-.24q.159-.106.307-.227c.014-.016.035-.031.053-.046a5 5 0 0 0 .352-.325q.142-.143.268-.294l.007-.004a4.4 4.4 0 0 0 .449-.679 4.54 4.54 0 0 0 .572-1.978c0-.097 0-.198-.008-.291l-.03-.26a2.954 2.954 0 0 0-.613-1.372 2.92 2.92 0 0 0-1.73-1.048l-.104-.02-.054-.01c-.02-.001.036.004-.053-.007h-.034l-.178-.005-.09-.002a1 1 0 0 0-.12.012c-.16.023-.328.042-.455.1l-.193.077c-.064.032-.124.071-.18.105a1.9 1.9 0 0 0-.859 1.216l-.019.085-.01.04v.011c-.007.07 0 .024-.002.041v.019q-.006.069-.005.141v.019a1.527 1.527 0 0 0 3.033.308 1.52 1.52 0 0 0-.198-1.013c.19.135.363.3.501.499a2.1 2.1 0 0 1 .348.944l.007.172-.004.152a3.4 3.4 0 0 1-.528 1.465c-.574.905-1.637 1.542-2.768 1.56-.14.004-.246-.01-.39-.014l-.258-.036-.064-.008-.03-.005-.012-.003c.005 0 .008 0 .018.003l-.112-.03-.45-.112-.435-.16a6 6 0 0 1-1.116-.596h-.004a5 5 0 0 1-.19-.138 5 5 0 0 1-.281-.216 5.6 5.6 0 0 1-1.274-1.57 6.274 6.274 0 0 1 1.143-7.798q.145-.13.292-.251.064-.052.128-.106.199-.154.407-.29c.082-.056.173-.105.262-.159q.084-.053.175-.104.155-.082.314-.16l.13-.061a6.258 6.258 0 0 1 2.574-.557c.375 0 .737.04 1.088.1q.651.083 1.251.353c2.172.868 3.454 2.955 3.941 5.35.354 1.773.685 4.37.949 7.292h.019c.262-2.922.598-5.52.955-7.292.482-2.395 1.763-4.482 3.937-5.35q.604-.27 1.245-.352c.353-.062.72-.1 1.093-.1a6.25 6.25 0 0 1 2.706.617c.105.053.214.104.316.16q.089.051.175.104c.084.054.178.103.26.16q.21.135.406.29.061.052.13.105.15.122.288.252a6.27 6.27 0 0 1 1.147 7.798 5.6 5.6 0 0 1-1.27 1.569q-.142.112-.284.216-.093.069-.193.138h-.005a6 6 0 0 1-1.114.596l-.435.16-.45.112-.113.03.019-.003-.008.003-.041.005-.057.008-.257.036c-.145.005-.248.018-.393.014-1.126-.018-2.196-.655-2.767-1.56-.289-.45-.469-.96-.525-1.465l-.01-.152.01-.172c.018-.115.035-.227.067-.337.06-.218.158-.425.282-.607.14-.198.31-.364.5-.5-.172.298-.257.651-.197 1.014a1.53 1.53 0 0 0 1.753 1.269 1.533 1.533 0 0 0 1.282-1.577v-.019l-.002-.141v-.019c-.005-.017.002.03-.008-.04v-.012l-.007-.04-.024-.085a1.86 1.86 0 0 0-.853-1.216c-.059-.034-.12-.073-.18-.105-.063-.025-.133-.05-.2-.077-.125-.058-.293-.077-.452-.1a1 1 0 0 0-.115-.012l-.093.002-.179.005h-.03c-.092.01-.037.006-.057.007l-.057.01-.102.02a2.918 2.918 0 0 0-1.73 1.048c-.2.255-.366.548-.486.87-.055.16-.093.329-.126.502l-.032.26c-.007.093-.007.194-.007.29.029.669.221 1.347.568 1.98q.193.354.457.678h-.003l.007.002c.086.103.171.2.264.296q.03.026.06.06c.096.09.192.181.292.265.021.015.043.03.057.046.103.08.2.156.305.226.01.01.027.019.038.028a4 4 0 0 0 .431.255 4 4 0 0 0 .415.197 4.7 4.7 0 0 0 .847.258q.042.01.088.016c.14.028.289.046.431.06.2.021.442.017.64.014l.26-.018.063-.005.03-.005h.02c.02-.004-.028.005.047-.007l.144-.025c.197-.035.386-.072.576-.106q.282-.078.566-.161a7.6 7.6 0 0 0 2.124-1.09 7.58 7.58 0 0 0 2.754-4.022l.14-.617c.044-.206.059-.417.085-.627.034-.202.034-.435.038-.658v-.342c0-.104-.013-.183-.02-.278a8.5 8.5 0 0 0-.506-2.394c-.546-1.558-1.526-2.87-2.554-3.937-1.04-1.057-2.135-1.91-3.156-2.666.174.046.345.092.526.13.911.2 1.898.297 2.919.339 1.018.042 2.085.033 3.167.056 1.08.017 2.182.074 3.251.264 1.06.2 2.09.533 2.958 1.147.431.301.844.66 1.186 1.091.05.06.11.128.15.181l.092.146c.065.094.138.18.196.306.063.116.135.227.186.35l.157.366a4.95 4.95 0 0 1 .054 3.184 5 5 0 0 1-.748 1.435l-.249.321-.28.288-.065.067-.004.002-.018.021-.046.037-.175.146c-.106.07-.176.125-.283.187-.844.505-1.94.527-2.789.11a3 3 0 0 1-1.083-.861l-.078-.113-.075-.136a2 2 0 0 1-.105-.285 2 2 0 0 1-.063-.333c.293.468.82.767 1.408.725a1.528 1.528 0 0 0 .532-2.91q-.049-.022-.099-.043-.03-.015-.07-.027a1.5 1.5 0 0 0-.512-.098q-.087-.005-.177-.003l-.182.028c-.118.012-.248.069-.376.121a.6.6 0 0 0-.16.083l-.136.084-.018.01-.007.004-.038.028-.031.032-.07.06q-.076.058-.138.127c-.359.362-.63.862-.709 1.429a2.6 2.6 0 0 0 .36 1.748c.321.5.774.934 1.321 1.263 1.087.663 2.609.803 3.926.175.163-.073.349-.188.504-.28l.186-.13.051-.033.02-.015.014-.01c.014-.014-.02.018.039-.03l.098-.086.394-.34.367-.381a6.8 6.8 0 0 0 1.159-1.81 6.85 6.85 0 0 0 .313-4.392l-.176-.548c-.06-.184-.143-.353-.218-.53-.067-.174-.176-.357-.282-.538l-.15-.266c-.054-.083-.098-.139-.142-.208a8 8 0 0 0-1.497-1.643c-1.137-.972-2.514-1.553-3.8-1.912-1.3-.355-2.539-.518-3.673-.644-.102-.01-.198-.021-.298-.03.106-.094.221-.175.321-.276l.322-.353.29-.383c.182-.265.386-.605.485-.846l.092-.197.01-.025.002-.007c-.003.005.03-.058.016-.037l.008-.016.02-.06.045-.123c.064-.162.1-.339.142-.507.06-.345.085-.696.054-1.045a3.65 3.65 0 0 0-.741-1.882 3.4 3.4 0 0 0-.701-.688c-.12-.1-.277-.185-.42-.27-.072-.042-.13-.063-.192-.095l-.095-.042-.071-.03-.058-.02a2.27 2.27 0 0 0-1.83.102l-.19.103c-.064.035-.113.088-.17.13-.111.089-.22.175-.31.297-.091.111-.188.228-.229.324l-.08.152-.038.074-.004.01c0-.004-.025.044-.014.028v.007l-.01.022-.018.05a1.2 1.2 0 0 0-.074.4 1.6 1.6 0 0 0-.018.357 1.53 1.53 0 1 0 2.263-1.453c.142.023.282.061.414.128l.04.012.003.004.02.013.09.052c.055.036.132.071.17.106.09.073.18.13.267.221a2.561 2.561 0 0 1 .86 1.95c0 .24-.042.477-.102.701-.047.112-.07.225-.132.329l-.038.079-.009.032-.016.022-.11.19-.111.186c-.035.065-.07.096-.105.146-.078.09-.126.184-.219.274q-.122.132-.243.268a4.476 4.476 0 0 1-1.423.92c-.39.16-.786.231-1.148.276-.114.004-.225.012-.334.014l-.053-.007h-.07q-.222-.002-.442-.023a5 5 0 0 1-.379-.047q-.09-.012-.178-.027a5 5 0 0 1-.333-.077q-.103-.025-.204-.055a5 5 0 0 1-.292-.098q-.112-.04-.225-.086a5 5 0 0 1-.318-.145 4 4 0 0 1-.343-.183q-.088-.052-.167-.103c-.075-.047-.14-.093-.212-.141q-.08-.06-.17-.123c-.069-.056-.14-.117-.213-.174-.008-.007-.01-.013-.022-.018q-.084-.078-.172-.157l-.096-.09c-.035-.036-.063-.071-.103-.107q-.015-.02-.035-.038c-.045-.05-.093-.103-.134-.155q-.08-.086-.157-.177c-.053-.073-.113-.148-.166-.225-.035-.046-.063-.088-.095-.136a4 4 0 0 1-.225-.368c-.028-.047-.05-.099-.078-.148q-.067-.136-.135-.278a2 2 0 0 1-.062-.155c-.052-.12-.094-.243-.14-.368-.008-.019-.016-.046-.023-.069-.045-.148-.081-.3-.12-.453q-.007-.069-.024-.138a6 6 0 0 1-.052-.354l-.018-.143c-.01-.163-.025-.328-.025-.492 0-.174.015-.346.028-.515l.022-.165c.018-.114.028-.228.053-.338q.015-.097.04-.192c.023-.097.051-.2.08-.296.016-.066.035-.127.058-.192.034-.096.065-.187.103-.28q.038-.095.075-.183c.042-.095.087-.183.137-.275q.037-.084.085-.166c.052-.096.108-.193.17-.281q.04-.069.083-.133a5.5 5.5 0 0 1 .615-.748q.06-.053.115-.104.12-.115.246-.223c.045-.041.09-.077.14-.116.082-.06.163-.123.24-.18q.084-.057.166-.108.125-.08.253-.155.089-.049.172-.093c.088-.048.185-.093.275-.135.056-.025.118-.05.168-.075q.16-.063.32-.114c.047-.017.097-.037.15-.05q.232-.076.483-.127.523-.109 1.081-.11c1.4 0 2.517.63 3.67 1.105 0 0 1.825.866 2.714 1.32 3.445 1.758 9.432 4.869 11.944 5.59l.003.001c3.357 1.177 5.3.583 7.164-.005 1.965-.62 3.813-1.203 7.8.38l.6.238v-2.105c-4.55-1.771-6.907-1.034-8.989-.38-1.733.545-3.236 1.012-6.078-.023-3.123-1.156-10.138-7.116-14.164-10.679a24.48 24.48 0 0 0 7.377-14.725c.254-1.528 1.41-3.415 2.575-4.845.186.457.39.902.573 1.342.422.73.755 1.475 1.222 2.091q.324.477.632.923.347.416.671.802c.412.525.865.951 1.26 1.33q.294.285.55.531l.494.394.94.742a.304.304 0 0 0 .414-.036.303.303 0 0 0-.026-.428l-.894-.796-.472-.419-.486-.533c-.35-.377-.749-.794-1.115-1.322l-.593-.796-.549-.908c-.408-.606-.679-1.331-1.037-2.034-.214-.625-.474-1.252-.656-1.915.254-.258.51-.517.755-.785 2.585 4.591 6.97 8.081 12.278 9.423q1.412.36 2.913.506c.077.01.161.016.241.023a1.886 1.886 0 0 0 1.89-1.42 1.89 1.89 0 0 0-1.368-2.29c-.03-.01-.07-.015-.1-.02-.118-.01-.23-.025-.347-.035a15.78 15.78 0 0 1-10.46-5.468 16 16 0 0 1-2.438-3.858c.22-.296.426-.604.637-.905q.176.245.346.5c.562.646 1.093 1.355 1.762 1.954.618.65 1.351 1.19 2.055 1.758.76.494 1.496 1.02 2.3 1.404.77.446 1.601.727 2.374 1.055.813.226 1.573.524 2.338.636l1.1.215 1.04.1c.661.086 1.283.073 1.83.065l.766-.006q.343-.037.628-.067l1.19-.13a.304.304 0 0 0-.048-.604s-.434.024-1.195.062l-.63.03-.722-.037c-.513-.025-1.09-.042-1.722-.163l-.982-.15q-.497-.129-1.028-.264c-.715-.145-1.418-.473-2.165-.723-.709-.354-1.469-.656-2.16-1.115-.73-.397-1.383-.93-2.059-1.421-.618-.567-1.265-1.096-1.794-1.727-.582-.58-1.025-1.26-1.504-1.87-.217-.377-.45-.732-.665-1.088.19-.297.383-.59.564-.892a19.57 19.57 0 0 0 10.033 5.927q1.61.378 3.316.483c1.26.071 2.505.025 3.725-.135.13 0 .26-.022.383-.052a1.89 1.89 0 0 0 1.378-1.397 1.89 1.89 0 0 0-1.407-2.268c-.193-.042-.387-.06-.578-.042l-.227.032c-.998.131-2.019.172-3.05.113a15.76 15.76 0 0 1-11.694-6.246c.147-.318.28-.645.418-.968q.244.215.482.44c.691.504 1.367 1.076 2.153 1.512.746.495 1.583.858 2.394 1.256.851.311 1.686.66 2.556.853.85.264 1.723.353 2.55.501.842.038 1.65.16 2.421.098l1.118-.036 1.037-.135c.664-.062 1.268-.215 1.8-.345l.744-.176.598-.205 1.131-.392a.303.303 0 0 0-.18-.578l-1.154.327q-.275.076-.608.17l-.71.124c-.506.091-1.073.202-1.714.227q-.477.033-.992.072c-.34-.01-.697-.019-1.06-.028-.73.018-1.487-.144-2.273-.223-.77-.187-1.578-.312-2.355-.605-.799-.224-1.555-.598-2.322-.925-.729-.414-1.478-.786-2.135-1.283-.696-.436-1.28-1-1.883-1.487-.297-.322-.605-.617-.895-.916.117-.314.243-.625.351-.944a19.4 19.4 0 0 0 6.69 2.897q1.614.362 3.317.45a19.6 19.6 0 0 0 8.44-1.444 1.89 1.89 0 0 0 1.15-1.346 1.884 1.884 0 0 0-2.393-2.212c-.012.007-.032.011-.049.019-.09.038-.187.08-.286.117a15.8 15.8 0 0 1-6.673 1.114 15.76 15.76 0 0 1-9.108-3.436c.082-.353.146-.71.217-1.064.253.128.508.257.762.398.797.312 1.595.693 2.466.916.848.29 1.75.428 2.634.606.903.084 1.8.21 2.69.178.887.038 1.755-.097 2.592-.163.825-.178 1.636-.266 2.366-.52l1.073-.32.968-.392c.627-.23 1.172-.53 1.653-.79q.362-.195.675-.36.287-.193.525-.351l.996-.665a.304.304 0 0 0 .092-.407.3.3 0 0 0-.414-.107"/><path fill="#fff" d="M164.641-348.678a.887.887 0 1 1-1.775 0 .887.887 0 0 1 1.775 0M215.746-348.678a.887.887 0 1 0 1.773 0 .887.887 0 0 0-1.773 0"/><path fill="#fccb06" d="M209.634-286.956v-27.047h-38.883v27.071c.003 10.728 8.7 19.424 19.426 19.434h.028c10.732-.01 19.426-8.706 19.43-19.434v-.024"/><path fill="#fccb06" d="M208.814-287.122v-26.061h-37.24v26.089c.005 10.274 8.33 18.603 18.603 18.61l.01.002.014-.002c10.277-.007 18.606-8.336 18.613-18.61v-.028"/><path fill="#d62934" d="M171.585-290.358h18.116v9.279h-17.189a18.4 18.4 0 0 1-.927-4.37z"/><path fill="#fff" d="M189.702-287.265h-18.116v1.816q.06.644.162 1.276h17.954zM189.708-291.308h-18.13v-21.884h18.13z"/><path fill="#fccb06" d="M208.799-291.308h-18.135v-21.884H208.8z"/><path fill="#d62934" d="M180.629-302.273h-9.062v-10.918h9.062zM192.68-291.31h-1.007v-21.873h1.007zM198.727-291.31h-1.003v-21.873h1.003zM196.712-291.31h-1.007v-21.873h1.007zM194.696-291.31h-1.009v-21.873h1.009zM201.745-291.308h-1.002v-21.875h1.002zM207.795-291.308h-1.006v-21.875h1.006zM205.779-291.308h-1.007v-21.875h1.007zM203.764-291.308h-1.008v-21.875h1.008z"/><path fill="#fff" d="m208.8-291.324-4.532-10.928-4.533 10.928v-21.858l4.533 10.93 4.531-10.93z"/><path fill="#231f20" d="M190.68-268.497c7.597-.197 14.049-4.936 16.758-11.6H190.68z"/><path fill="#3580cb" d="M189.75-280.098h-16.805c2.717 6.677 9.193 11.427 16.805 11.6z"/></g><g fill="#fccb06" clip-path="url(#b)" transform="translate(0 744.1)scale(1.25)"><path d="m190.269-262.807-18.785-18.786 1.359-1.355 18.785 18.789zM187.529-260.06l-18.785-18.788 1.356-1.359 18.788 18.787zM195.75-268.326l-18.783-18.79 1.36-1.357 18.78 18.79zM193.001-265.577l-18.785-18.788 1.356-1.356 18.782 18.788z"/></g><g clip-path="url(#c)" transform="translate(0 744.1)scale(1.25)"><path fill="#3580cb" d="M208.792-280.998h-18.12v-9.37h18.12z"/><path fill="#fff" d="M208.792-288.473h-18.12v-1.925h18.12z"/><path fill="#fff" d="M193.269-280.998h-2.596v-9.37h2.596z"/><path fill="#fff" d="M208.792-280.99h-18.12v-1.924h18.12z"/><path fill="#fff" d="M208.799-280.998h-2.592v-9.37h2.592z"/><path fill="#d62934" d="M193.254-284.734h-2.581v-1.92h2.58zM208.792-284.734h-2.581v-1.92h2.581zM193.254-280.998h-2.581v-1.917h2.58zM198.435-280.998h-2.581v-1.917h2.581zM203.615-280.998h-2.58v-1.917h2.58zM208.792-280.998h-2.581v-1.917h2.581zM193.254-288.473h-2.581v-1.917h2.58zM198.435-288.473h-2.581v-1.917h2.581zM203.615-288.473h-2.58v-1.917h2.58zM208.792-288.473h-2.581v-1.917h2.581z"/></g><g clip-path="url(#d)" transform="translate(0 744.1)scale(1.25)"><path fill="#fccb06" fill-rule="evenodd" d="M204.18-286.15a.53.53 0 0 0-.754 0s-.039.037-.089.096c.054-.17.092-.342.092-.489 0-.474-.404-.857-.404-.857s-.399.383-.399.857c0 .147.035.316.092.487-.054-.057-.092-.094-.092-.094a.533.533 0 0 0-.754 0 .53.53 0 0 0-.06.677.465.465 0 0 1 .754-.143q.048.048.074.105c.028.04.043.088.05.136h-.035a.227.227 0 0 0-.226.225c0 .087.05.159.123.197-.222.19-.511.293-.511.293.204.204.511.24.75.108.038.29.269.511.269.511s.218-.203.267-.478c.225.09.493.045.684-.141 0 0-.286-.103-.504-.29a.23.23 0 0 0 .127-.2.227.227 0 0 0-.226-.225h-.049a.4.4 0 0 1 .05-.136.464.464 0 0 1 .832.038.53.53 0 0 0-.062-.677M200.893-286.15a.533.533 0 0 0-.754 0s-.035.037-.087.096c.052-.17.087-.342.087-.489 0-.474-.398-.857-.398-.857s-.4.383-.4.857c0 .147.033.316.087.487l-.083-.094a.536.536 0 0 0-.822.677.5.5 0 0 1 .101-.142.466.466 0 0 1 .66 0 .473.473 0 0 1 .12.24h-.035a.226.226 0 0 0-.225.225c0 .087.052.159.123.197a1.9 1.9 0 0 1-.508.293c.2.204.508.24.747.108.038.29.272.511.272.511s.215-.203.262-.478a.63.63 0 0 0 .684-.141s-.284-.103-.5-.29a.226.226 0 0 0-.102-.426l-.046.001a.6.6 0 0 1 .046-.136.462.462 0 0 1 .736-.104.4.4 0 0 1 .099.142.53.53 0 0 0-.064-.677M197.61-286.15a.537.537 0 0 0-.756 0s-.035.037-.086.096c.054-.17.093-.342.093-.489 0-.474-.401-.857-.401-.857s-.402.383-.402.857c0 .147.035.316.085.487-.047-.057-.081-.094-.081-.094a.535.535 0 0 0-.821.678q.037-.078.096-.143a.463.463 0 0 1 .785.24h-.035a.224.224 0 0 0-.106.422c-.22.19-.507.293-.507.293.207.204.507.24.753.108.034.29.268.511.268.511s.208-.203.264-.478c.23.09.496.045.679-.141 0 0-.281-.103-.499-.29a.24.24 0 0 0 .127-.2.23.23 0 0 0-.228-.225h-.047a.4.4 0 0 1 .049-.136.464.464 0 0 1 .831.038.53.53 0 0 0-.06-.677"/><path fill="#d62934" d="M189.75-280.098h-16.805c2.717 6.677 9.193 11.427 16.805 11.6zm-1.812 1.81v7.836c-5-.67-9.42-3.56-12.052-7.836z"/><path fill="#fff" d="M190.19-277.35a4.023 4.023 0 0 1-4.016-4.017v-5.44h8.034v5.44c0 2.213-1.8 4.015-4.013 4.016z"/><path fill="#fccb06" d="M194.678-287.278h-8.975v5.907a4.496 4.496 0 0 0 4.486 4.491 4.495 4.495 0 0 0 4.49-4.487v-5.911m-.94.941v4.97a3.546 3.546 0 0 1-3.544 3.546h-.004a3.55 3.55 0 0 1-3.545-3.546v-4.97z"/><path fill="#fccb06" d="M186.645-286.337v4.969a3.55 3.55 0 0 0 3.545 3.547v-8.516z"/><path fill="#fff" d="M193.737-281.373v-4.964h-3.547v8.516h.004a3.547 3.547 0 0 0 3.543-3.547l.004-.003z"/><path fill="#fccb06" d="M186.645-286.337v4.969a3.55 3.55 0 0 0 3.545 3.547v-8.516z"/><path fill="#fff" d="M193.737-281.373v-4.964h-3.547v8.516h.004a3.547 3.547 0 0 0 3.543-3.547l.004-.003z"/><path fill="#231f20" d="M188.43-281.229a.77.77 0 0 1-.357-.649c0-.127.033-.243.086-.349h-.013a.452.452 0 0 0-.22.845l-.13.17a.545.545 0 0 0-1.004.288h.009l-.01.004.197.194.174-.178.182.178.174-.178.181.178.185-.198zM186.716-283.65h.25v.252h.271a.55.55 0 0 0 0-.775.54.54 0 0 0-.767 0v.003h-.005v.27h.251z"/><path fill="#231f20" d="M186.716-282.478h.253v.255h.268a.55.55 0 0 0 .14-.264l.736-.004a1.339 1.339 0 0 0 1.257-1.882 1.3 1.3 0 0 0-.335-.464 1 1 0 0 0-.435-.264 2 2 0 0 0-.293-.037l-.993.625.18.287v-.006c0-.09.071-.163.16-.163.092 0 .166.073.166.163a.165.165 0 0 1-.166.166.14.14 0 0 1-.073-.022l.071.114h.208c.113 0 .212.031.305.077l-.003.011c-.037-.003-.076-.008-.123-.003a.695.695 0 0 0-.585 1.02h-.123a.537.537 0 0 0-.86-.13h-.005v.273h.25zM189.906-282.652c.059-.04.099-.103.099-.179 0-.118-.208-.39-.208-.39s-.212.272-.212.39c0 .08.042.144.105.18v.48a.2.2 0 0 1-.2.201.18.18 0 0 1-.133-.054 1 1 0 0 0-.064-.14v-.007h-.004a.53.53 0 0 0-.436-.24.531.531 0 0 0-.352.927h-.002l.03.02a.2.2 0 0 0 .036.03l.404.306-.049.305a.547.547 0 0 0-.827.466v.004l.193.19.177-.176.175.176.18-.176.177.176.185-.19v-.008a.55.55 0 0 0-.052-.254l.25-.513v-.648a.412.412 0 0 0 .523-.396v-.48h.01z"/><path fill="#d62934" d="M192.6-284.83q.132.188.133.435c0 .683-.356.612-.387.612-.12 0-.162-.09-.17-.204-.007-.067.057-.971.057-1.075 0-.271-.007-.556-.433-.556-.285 0-.377.174-.377.243.134 0 .282.157.295.321 0 .006.038.997.038 1.067-.012.115-.051.204-.175.204-.032 0-.386.071-.386-.612a.75.75 0 0 1 .135-.434c-.193-.15-.517-.447-.642-.66v5.165l1.18-2.121-.512 2.407c.08.42.324.59.61.596.284-.005.525-.175.61-.596l-.512-2.407 1.177 2.12v-5.164c-.125.213-.448.51-.64.66"/><path fill="#fccb06" d="M179.503-303.894h-6.808v-.853h6.808zM179.077-305.174h-5.96l.44-2.975h5.105z"/><path fill="#3580cb" d="M176.671-305.168h-1.148v-1.152h.007a.57.57 0 0 1 1.141 0z"/><path fill="#fccb06" d="M178.668-309.42v-1.536h-.256v.255h-.253v-.255h-.259v.255h-.253v-.255h-.256v1.537h-.642v-2.389h-.253v.258h-.258v-.258h-.257v.258h-.252v-.258h-.258v2.388h-.641v-1.531h-.258v.254h-.254v-.254h-.255v.254h-.254v-.254h-.254v1.532h-.437v.852h5.959v-.852z"/><path fill="#3580cb" d="M174.407-309.726h-.43v-.43c0-.116.099-.21.216-.21a.21.21 0 0 1 .21.21h.004zM174.608-306.445h-.426v-.43a.213.213 0 1 1 .426 0zM176.323-310.266h-.426v-.43h.003a.21.21 0 0 1 .212-.211.21.21 0 0 1 .21.21zM178.243-309.73h-.43v-.43h.007a.21.21 0 0 1 .21-.21c.116 0 .212.096.212.21zM178.018-306.445h-.427v-.43h.003a.21.21 0 0 1 .208-.213c.12 0 .216.096.216.213z"/><path fill="#d62934" d="M189.729-291.35h-9.067v-10.917h9.067z"/><path fill="#fccb06" d="M188.6-292.969h-6.808v-.853h6.808zM188.17-294.251h-5.95l.434-2.973h5.103z"/><path fill="#3580cb" d="M185.77-294.247h-1.146v-1.152h.003c0-.311.25-.563.568-.563.313 0 .57.252.57.563h.005z"/><path fill="#fccb06" d="M187.761-298.496v-1.535h-.253v.255h-.258v-.255h-.253v.255h-.253v-.255h-.257v1.535h-.64v-2.386h-.254v.253h-.258v-.253h-.257v.253h-.254v-.253h-.256v2.386h-.64v-1.532h-.255v.256h-.257v-.256h-.254v.256h-.257v-.256h-.257v1.532h-.429v.854h5.951v-.854z"/><path fill="#3580cb" d="M183.504-298.8h-.43v-.431h.003c0-.116.093-.212.213-.212.115 0 .214.096.214.212zM183.705-295.522h-.426v-.43a.21.21 0 0 1 .212-.211c.118 0 .214.094.214.21zM185.42-299.343h-.427v-.43c0-.116.096-.211.213-.211.118 0 .214.095.214.212zM187.34-298.804h-.426v-.43c0-.116.094-.211.21-.211s.211.095.211.21h.004zM187.114-295.522h-.431v-.43h.005a.21.21 0 0 1 .21-.211c.12 0 .215.094.215.21z"/><path fill="#fff" d="M190.194-306.257c0 8.782-7.116 15.899-15.896 15.899h31.793c-8.779 0-15.897-7.117-15.897-15.899"/><path fill="#2ba543" d="M191.68-293.204c-.475 0-.898.209-1.17.39q.05-.31.022-.617-.02.007-.036.008v.003l-.627.004a2 2 0 0 1-.017.587c-.27-.175-.683-.375-1.147-.375-.82 0-1.486.626-1.486.626s.665.628 1.486.628c.35 0 .662-.114.914-.243-.09.154-.199.304-.334.44a.333.333 0 0 0 0 .464.33.33 0 0 0 .233.094c.085 0 .168-.03.231-.094a2.7 2.7 0 0 0 .671-1.112c.26.187.724.451 1.26.451.82 0 1.486-.628 1.486-.628s-.666-.626-1.486-.626"/><path fill="#d62934" d="M190.733-295.44c0-.727-.54-1.315-.54-1.315s-.538.588-.538 1.315c0 .721.539 1.31.539 1.31s.539-.589.539-1.31"/><path fill="#fccb06" d="M189.655-295.44c0-.727.539-1.315.539-1.315s.539.588.539 1.315c0 .721-.54 1.31-.54 1.31s-.538-.589-.538-1.31m.842 2.017a2.046 2.046 0 0 0 .458-3.927v-.83l-.37.368-.372-.369-.41.369-.38-.379v.845a2.049 2.049 0 0 0 .446 3.92v.01h.628z"/><path fill="#d62934" d="M176.587-294.215a1.25 1.25 0 0 1-.575-1.049c0-.2.054-.388.138-.557q-.012-.001-.017-.003a.726.726 0 0 0-.357 1.36l-.21.27a.873.873 0 0 0-1.61.467h.004l-.003.006.31.309.284-.283.282.283.281-.283.293.283.3-.315zM173.632-298.628a.88.88 0 0 0-1.236 0l.004.005h-.007v.439h.405v.402h.4v.404h.439a.89.89 0 0 0-.004-1.25"/><path fill="#d62934" d="M179.93-297.73a.658.658 0 0 0-1.313.04l-.005-.001v1.962c0 .175-.144.32-.321.32a.32.32 0 0 1-.217-.088 1 1 0 0 0-.1-.223v-.009h-.01a.847.847 0 1 0-1.267 1.099l-.004.002.049.035q.025.023.056.042l.652.497-.081.493a.87.87 0 0 0-.454-.13.876.876 0 0 0-.874.875h.007l-.007.003.31.31.282-.282.288.283.286-.283.285.283.306-.31v-.01c0-.15-.05-.288-.116-.41l.427-.822v-1.046a.6.6 0 0 0 .182.028.66.66 0 0 0 .662-.658v-1.959c0-.174.145-.32.321-.32.162 0 .293.127.314.285a.34.34 0 0 0-.162.285c0 .187.337.627.337.627s.342-.44.342-.627a.34.34 0 0 0-.176-.292M176.792-300.812l-.296-.301-.279.277-.272-.278-.278.274-.273-.277-.3.299.3.301.273-.274.275.274.275-.274.279.278zM177.415-299.016a2.1 2.1 0 0 0-.539-.738c-.19-.2-.434-.35-.708-.428a2.4 2.4 0 0 0-.472-.06l-1.592 1.004.286.462v-.006c0-.148.115-.265.264-.265s.264.117.264.265a.26.26 0 0 1-.264.263.24.24 0 0 1-.128-.036l.118.187h.336c.182 0 .346.048.495.124l-.007.018a1.12 1.12 0 0 0-1.138 1.637h-.6a1 1 0 0 0-.154-.217.875.875 0 0 0-1.236 0l.004.006h-.007v.436h.405v.404h.402v.404h.436a.9.9 0 0 0 .229-.423h1.504c.292 0 .693-.06.993-.19a2.16 2.16 0 0 0 1.109-2.847"/><path fill="#fccb06" d="M198.076-273.322a1.04 1.04 0 0 1-.367-1.347l-.013-.002a.61.61 0 0 0-.61.611c0 .229.128.425.313.529l-.178.23a.73.73 0 0 0-1.35.389h.005l-.004.006.257.259.243-.24.235.24.24-.24.24.24.254-.265zM195.601-277.021a.736.736 0 0 0-1.037 0l.005.003h-.008v.367h.34v.342h.34v.335h.363a.753.753 0 0 0-.003-1.047"/><path fill="#fccb06" d="M200.88-276.268a.55.55 0 0 0-1.1.03h-.003v1.644c0 .15-.123.27-.27.27a.26.26 0 0 1-.18-.073.7.7 0 0 0-.09-.186v-.01h-.007a.709.709 0 0 0-1.298.396c0 .208.094.396.238.528h-.002l.042.032c.017.012.027.025.045.036l.549.416-.07.414a.734.734 0 0 0-1.113.624h.003l-.003.004.261.26.236-.24.24.24.24-.24.24.24.255-.26-.006-.011a.7.7 0 0 0-.067-.34l.335-.691v-.877a.5.5 0 0 0 .151.024c.305 0 .557-.25.557-.556v-1.638c0-.148.12-.272.27-.272.134 0 .243.11.26.243a.28.28 0 0 0-.137.237c0 .158.286.527.286.527s.288-.369.288-.527a.28.28 0 0 0-.151-.243M198.251-278.854l-.249-.252-.232.232-.23-.232-.231.23-.23-.232-.254.25.254.253.23-.233.229.234.232-.232.229.232zM198.771-277.348a1.8 1.8 0 0 0-.45-.618 1.35 1.35 0 0 0-.594-.36 2 2 0 0 0-.397-.048l-1.335.84.238.39v-.009a.222.222 0 0 1 .444 0 .22.22 0 0 1-.327.195l.096.155h.288c.15 0 .286.038.413.102l-.007.015a.942.942 0 0 0-.955 1.372h-.504a.8.8 0 0 0-.127-.18.737.737 0 0 0-1.038 0v.371h.338v.339h.337v.336h.367a.8.8 0 0 0 .188-.355h1.266c.239 0 .577-.049.828-.158a1.807 1.807 0 0 0 .93-2.387"/><path fill="#d62934" d="M185.72-305.139a1.25 1.25 0 0 1-.575-1.048c0-.2.053-.39.137-.558h-.017a.725.725 0 0 0-.356 1.356l-.21.273a.87.87 0 0 0-.737-.409.877.877 0 0 0-.874.876h.004l-.004.005.311.308.284-.283.286.285.281-.285.29.285.3-.317zM182.768-309.55a.88.88 0 0 0-1.24 0l.008.004h-.01v.436h.404v.406h.404v.403h.437a.89.89 0 0 0-.003-1.248"/><path fill="#d62934" d="M189.061-308.652a.659.659 0 0 0-1.314.036h-.002v1.961c0 .176-.145.32-.321.32a.3.3 0 0 1-.215-.087.8.8 0 0 0-.106-.222v-.01h-.007a.84.84 0 0 0-.701-.383.85.85 0 0 0-.852.85.85.85 0 0 0 .289.635h-.007l.052.038c.019.014.033.03.057.041l.648.494-.082.495a.85.85 0 0 0-.45-.13.874.874 0 0 0-.874.875v.004l.306.31.288-.286.284.286.284-.286.285.286.312-.31v-.01a.8.8 0 0 0-.093-.41l.402-.824v-1.046a.6.6 0 0 0 .18.03.66.66 0 0 0 .66-.66v-1.955c0-.174.145-.324.32-.324.162 0 .294.13.313.29a.33.33 0 0 0-.16.281c0 .187.34.63.34.63s.34-.443.34-.63a.33.33 0 0 0-.176-.289M185.926-311.737l-.295-.3-.28.275-.273-.277-.278.276-.27-.277-.304.3.3.298.274-.274.275.277.275-.277.278.278zM186.55-309.939a2.1 2.1 0 0 0-.542-.738c-.19-.2-.434-.352-.705-.426a2.4 2.4 0 0 0-.475-.063l-1.59 1.004.284.463v-.006a.264.264 0 1 1 .528 0 .264.264 0 0 1-.26.265.25.25 0 0 1-.13-.038l.116.187h.337c.183 0 .345.048.493.123l-.007.018a1.126 1.126 0 0 0-1.268 1.166q.019.257.132.47h-.6a1 1 0 0 0-.154-.215.87.87 0 0 0-1.234 0v.005h-.003v.435h.401v.405h.406v.403h.437a.9.9 0 0 0 .225-.424h1.507c.29 0 .69-.058.99-.187a2.163 2.163 0 0 0 1.113-2.847"/><path fill="#231f20" d="M199.74-303.499v-1.895c.147.25.53.603.759.779a.92.92 0 0 0-.161.517c0 .807.419.722.46.722.14 0 .19-.105.205-.243.007-.083-.044-1.254-.044-1.259-.02-.196-.193-.379-.351-.379 0-.088.106-.294.445-.294.507 0 .51.341.51.662 0 .119-.067 1.193-.065 1.27.013.138.064.243.202.243.043 0 .464.085.464-.722a.87.87 0 0 0-.165-.517c.232-.176.617-.529.764-.779v6.111000000000001l-1.397-2.51.605 2.851c-.098.5-.382.7-.722.705-.335-.005-.623-.205-.727-.705l.61-2.852-1.391 2.51zM205.782-303.499v-1.895c.145.25.53.603.76.779a.9.9 0 0 0-.16.517c0 .807.416.722.458.722.141 0 .192-.105.202-.243.009-.083-.041-1.254-.041-1.259-.02-.196-.191-.379-.348-.379 0-.088.102-.294.442-.294.507 0 .51.341.51.662 0 .119-.065 1.193-.063 1.27.01.138.063.243.202.243.042 0 .46.085.46-.722a.86.86 0 0 0-.162-.517c.23-.176.614-.529.762-.779v6.111000000000001l-1.394-2.51.605 2.851c-.098.5-.387.7-.723.705-.338-.005-.622-.205-.721-.705l.603-2.852-1.392 2.51z"/><path fill="#fff" d="M167.994-301.175a.89.89 0 1 1-.792.978.89.89 0 0 1 .792-.978M167.994-297.976c.489-.05.927.306.979.791a.897.897 0 0 1-.792.98.896.896 0 0 1-.98-.793.89.89 0 0 1 .793-.978M167.994-294.772a.889.889 0 1 1 .187 1.768.888.888 0 1 1-.187-1.769M167.994-291.572a.89.89 0 1 1-.792.977.89.89 0 0 1 .792-.977M167.994-288.373a.894.894 0 0 1 .979.792.894.894 0 0 1-.792.978.893.893 0 0 1-.98-.79.89.89 0 0 1 .793-.98M167.202-284.217a.891.891 0 0 1 1.77-.182.89.89 0 0 1-1.77.182M167.765-281.04a.888.888 0 1 1 1.722-.43.887.887 0 1 1-1.722.43M168.757-277.973a.893.893 0 0 1 .493-1.155.883.883 0 0 1 1.155.49.884.884 0 0 1-.489 1.159.895.895 0 0 1-1.159-.494M171.39-274.746a.896.896 0 0 1-1.22-.328.89.89 0 0 1 .327-1.214.89.89 0 0 1 1.216.327.89.89 0 0 1-.324 1.215M173.223-272.245a.885.885 0 0 1-1.246-.153.887.887 0 1 1 1.4-1.094.886.886 0 0 1-.154 1.247M175.393-270.024a.89.89 0 1 1-.021-1.257.893.893 0 0 1 .021 1.257M177.848-268.125a.896.896 0 0 1-1.247.197.89.89 0 0 1-.19-1.243.888.888 0 1 1 1.437 1.046M180.542-266.586a.888.888 0 1 1-1.566-.836.889.889 0 1 1 1.566.836M183.427-265.441a.895.895 0 0 1-1.142.534.894.894 0 0 1-.532-1.143.892.892 0 0 1 1.674.609M184.702-265.073a.888.888 0 1 1 .687 1.055.89.89 0 0 1-.687-1.055M190.853-264.396a.894.894 0 0 1 .827-.947.89.89 0 0 1 .948.823.89.89 0 0 1-.825.953.896.896 0 0 1-.95-.829M188.582-263.568a.895.895 0 0 1-.828-.95.89.89 0 0 1 .952-.825.89.89 0 0 1-.124 1.775M195.001-264.019a.896.896 0 0 1-1.06-.687.893.893 0 0 1 .691-1.053.885.885 0 0 1 1.053.686.89.89 0 0 1-.684 1.054M198.097-264.907a.889.889 0 1 1-.605-1.672.89.89 0 1 1 .605 1.672M201.044-266.22a.886.886 0 0 1-1.2-.366.888.888 0 1 1 1.57-.836.885.885 0 0 1-.37 1.202M203.779-267.928a.891.891 0 0 1-1.044-1.441.89.89 0 0 1 1.245.198.896.896 0 0 1-.201 1.243M206.25-270.002a.887.887 0 1 1-1.231-1.278.88.88 0 0 1 1.252.02.887.887 0 0 1-.021 1.258M208.41-272.398a.89.89 0 0 1-1.401-1.097.888.888 0 0 1 1.4 1.097M210.212-275.074a.89.89 0 0 1-1.214.327.887.887 0 1 1 .887-1.54.887.887 0 0 1 .327 1.213M211.628-277.973a.89.89 0 1 1-1.651-.664.89.89 0 0 1 1.651.664M212.622-281.04a.888.888 0 1 1-1.723-.43.889.889 0 1 1 1.723.43M212.206-283.424a.89.89 0 1 1 .186-1.77.89.89 0 0 1-.186 1.77M212.206-286.603a.89.89 0 1 1 .186-1.77.89.89 0 0 1-.186 1.77M212.206-289.803a.889.889 0 1 1 .187-1.77c.485.053.84.49.792.978a.894.894 0 0 1-.98.792M212.206-293.004a.89.89 0 0 1-.792-.977.89.89 0 0 1 1.771.186.894.894 0 0 1-.98.791M212.206-296.205a.893.893 0 0 1-.792-.98.89.89 0 0 1 .979-.791c.485.054.84.49.792.979a.894.894 0 0 1-.98.792M212.206-299.407a.89.89 0 1 1 .187-1.768c.485.052.84.49.792.977a.89.89 0 0 1-.98.791"/><path fill="#231f20" d="M145.32-266.443c.259-.09 1.28-.841 1.28-2.91 0-2.02-.723-2.343-1.28-2.343zm0 4.154h-.802v-9.99h.609c.905 0 2.29.363 2.29 2.925 0 2.33-1.476 3.377-2.096 3.545zM149.643-272.278v9.407h1.734v.582h-2.536v-9.99zM152.465-272.278h.803v8.19c0 .97.413 1.281.698 1.281.284 0 .712-.31.712-1.28v-8.191h.802v7.945c0 1.59-.739 2.108-1.514 2.108-.776 0-1.5-.517-1.5-2.108zM158.405-271.76c-.44 0-.866.335-.866 1.073 0 .79.453 1.579.97 2.42.75 1.216 1.333 2.251 1.333 3.662 0 1.824-1.281 2.38-2.044 2.38-.454 0-.802-.103-1.075-.285l.246-.491c.22.129.518.194.829.194.453 0 1.215-.401 1.215-1.786 0-1.1-.556-2.146-1.087-3-.828-1.335-1.19-2.046-1.19-3.08 0-1.061.687-1.67 1.683-1.67.492 0 .892.22.892.22l-.26.518a1.4 1.4 0 0 0-.646-.156M219.905-272.397h.812v8.288c0 .982.419 1.296.707 1.296s.72-.314.72-1.296v-8.288h.812v8.04c0 1.61-.746 2.133-1.532 2.133s-1.52-.523-1.52-2.133zM224.862-272.397v9.518h1.755v.59h-2.567v-10.108zM227.899-271.809v9.52h-.812v-9.52h-1.191v-.588h3.183v.588zM230.514-266.492c.262-.092 1.297-.85 1.297-2.946 0-2.043-.734-2.37-1.297-2.37zm0 .628v3.575h-.812v-10.108h.616c1.06 0 2.318.523 2.318 2.959 0 1.963-1.034 2.946-1.519 3.286.314.38.655.89.917 1.52.34.823.484 1.662.484 2.343h-.76c0-.655-.131-1.44-.366-2.03-.263-.641-.603-1.204-.878-1.545M234.12-264.83h1.296l-.654-4.596zm.917-7.567 1.558 10.108h-.812l-.288-1.951h-1.467l-.276 1.95h-.693l1.558-10.107z"/><path fill="#fccb06" d="M191.616-258.14c0 .794-.635 1.432-1.43 1.432-.79 0-1.426-.638-1.426-1.432a1.429 1.429 0 1 1 2.856 0M191.076-261.66a.89.89 0 1 1-1.779.006.89.89 0 0 1 1.779-.005M188.255-253.134a1.5 1.5 0 0 0-.268-.504c-.122-.166-.272-.267-.426-.38-.32-.211-.712-.295-1.09-.28a2 2 0 0 0-.56.11c-.17.069-.423.208-.5.283a2.2 2.2 0 0 0-.64.799 2.33 2.33 0 0 0-.136 1.703c.048.227.19.45.282.619.094.148.15.198.195.265l.068.085.015.019c.008.01.02.014.03.023l-.012.008.793.793c.19.19.505.182.703-.015.1-.1.15-.228.152-.354v-.732c-.308 0-.957-.22-1.273-.806a.7.7 0 0 1-.08-.2 1.4 1.4 0 0 1-.083-.492c.006-.184.04-.384.128-.575.087-.189.21-.383.39-.525a.98.98 0 0 1 .598-.24c.222 0 .46.02.656.143.088.062.204.13.258.21.054.06.1.117.104.145.015.035.042.068.051.123a.8.8 0 0 1 .04.325q.001.008.003.02a.67.67 0 0 1-.293.546c-.02.014-.039.031-.05.039q-.012.004-.022.009a.67.67 0 0 1-.316.088.68.68 0 0 1-.681-.682c0-.17.069-.32.17-.44-.15 0-.38.151-.449.482a.93.93 0 0 0 .041.567c.028.053.058.115.092.167.035.043.047.065.108.131.09.083.19.167.317.225.249.12.57.154.88.046.078-.023.161-.076.244-.12.068-.043.11-.083.167-.125.15-.155.234-.264.315-.433.153-.315.191-.705.08-1.07M190.726-255.47h-1.072l-.333 2.027a.868.868 0 1 0 1.737 0zM187.801-254.56c.413.228.744.582.925 1.022l.01-.043q.006-.067.022-.132l.306-1.597c-.466.16-.893.422-1.263.75M189.098-248.193l-.23-.717.52-.228v-2.98a1.5 1.5 0 0 1-.51-.575 2.06 2.06 0 0 1-1.102 1.764v2.785c0 .173.066.325.158.456zM192.328-248.193l-.231-.717.516-.225v-.08c0-1.737 1.147-1.379 1.147-2.82 0-1.398-.967-2.79-2.438-3.282l.293 1.551q.036.13.047.269l.015.073-.004.03q.004.016.004.03c0 .525-.27.982-.677 1.248v3.972c0 .173.066.326.16.456z"/><path fill="#231f20" d="m124.065-235.337-1.14-1.106 4.365-4.492q.886-.912 1.47-1.247.585-.336 1.079-.454.495-.12 1.016-.088 1.726.103 3.245 1.578 1.546 1.503 1.7 3.214.041.524-.063 1.024-.104.499-.412 1.07-.306.57-1.237 1.528l-4.352 4.48-1.14-1.105 4.365-4.492q1.083-1.116 1.252-1.8t-.096-1.453-.974-1.458q-1.008-.978-2.154-1.069a2.3 2.3 0 0 0-1.131.201q-.522.242-1.43 1.177zM109.992-254.33l-.781-1.28 9.417-5.747.708 1.16-3.411 10.722 7.254-4.426.773 1.268-9.42 5.746-.665-1.092 3.44-10.813zM103.978-267.694l-.524-1.49 10.407-3.664.523 1.49zM99.03-288.755l-.23-1.556 11.64 3.006.053.355-10.272 6.312-.231-1.572 7.184-4.408zM98.556-302.336l.423-6.24 1.403.094-.316 4.665 3.356.228.306-4.507 1.41.095-.306 4.507 3.42.232.326-4.814 1.403.094-.433 6.391zM103.045-322.714l-.132.455 3.342.976.17-.577q.335-1.151.263-1.638a1.55 1.55 0 0 0-.4-.84 1.8 1.8 0 0 0-.837-.504 1.7 1.7 0 0 0-.984.001q-.481.149-.789.58-.307.434-.633 1.547m8.727 4.686-10.59-3.091.774-2.653q.469-1.606 1.54-2.319t2.428-.315q.924.27 1.465.929.54.659.621 1.621a4.9 4.9 0 0 1 1.2-.728q.717-.316 2.406-.778a22 22 0 0 0 1.617-.491l.921-.34-.527 1.804-.832.258a2 2 0 0 0-.154.054l-.505.174-.91.243-.975.266a9 9 0 0 0-1.29.557q-.499.278-.762.544-.263.265-.479 1.01l-.114.393 4.608 1.345zM115.324-339.675l-1.214.708q-1.144.663-1.96.766a2.57 2.57 0 0 1-1.576-.313q-1.145-.62-1.43-1.804-.285-1.182.406-2.453a4.45 4.45 0 0 1 1.888-1.86l1.577.856q-1.577.502-2.231 1.709-.37.681-.292 1.289.077.608.568.874.434.237.992.12.554-.116 1.36-.602l1.203-.721q2.021-1.2 3.66-.311 1.166.633 1.472 1.809.305 1.176-.373 2.426-.78 1.437-2.303 2.138l-1.763-.956q2.035-.352 2.837-1.831.353-.653.226-1.283-.127-.631-.675-.928-.886-.48-2.372.367M118.046-355.423l.985-1.234 8.621 6.885-.986 1.234zM127.2-365.64l7.01-5.983.912 1.069-2.925 2.497 6.26 7.334-1.207 1.03-6.26-7.334-2.877 2.456zM151.224-374.796l-3.464-2.672.444 4.3zm-5.09-4.549.977-.527 9.62 7.417-1.422.768-2.847-2.18-4.142 2.235.34 3.53-1.43.772zM167.188-380.988l-1.354-.375q-1.275-.356-1.916-.868a2.58 2.58 0 0 1-.877-1.348q-.356-1.254.294-2.283t2.04-1.422a4.45 4.45 0 0 1 2.65.057l.487 1.725q-1.459-.78-2.781-.406-.745.211-1.127.691-.38.48-.229 1.017.135.477.606.794.469.315 1.38.553l1.356.36q2.271.61 2.778 2.403.36 1.276-.268 2.316-.63 1.04-1.998 1.427-1.573.444-3.138-.157l-.546-1.93q1.671 1.212 3.29.754.714-.203 1.078-.734.363-.532.193-1.13-.274-.97-1.918-1.444M190.345-387.357q.355.006.657.145.302.14.527.372t.35.543q.126.31.121.665t-.14.661a1.7 1.7 0 0 1-.909.886 1.6 1.6 0 0 1-.662.123 1.717 1.717 0 0 1-1.194-.517 1.8 1.8 0 0 1-.364-.543 1.6 1.6 0 0 1-.127-.665 1.719 1.719 0 0 1 .53-1.2q.235-.225.55-.35a1.7 1.7 0 0 1 .661-.12M215.42-381.19l3.557 1.036-1.307 4.487q-2.204.282-4.13-.28-2.63-.765-3.758-2.759-1.125-1.991-.47-4.245.689-2.372 2.78-3.475 2.087-1.105 4.545-.388a7.5 7.5 0 0 1 1.642.688q.747.425 1.827 1.298l-.452 1.549q-1.573-1.651-3.44-2.195-1.736-.506-3.27.331-1.537.836-2.038 2.559-.522 1.805.333 3.295.859 1.493 2.732 2.037.908.265 2.298.215l.157-.003.64-2.207-2.04-.592zM232.837-378.527l-.413-.23-1.7 3.04.525.292q1.047.585 1.536.624.49.038.91-.202a1.8 1.8 0 0 0 .678-.703q.253-.454.22-.958a1.48 1.48 0 0 0-.39-.9q-.352-.396-1.366-.963m-6.52 7.457 5.382-9.63 2.413 1.348q1.463.817 1.915 2.02.455 1.205-.236 2.438-.47.841-1.232 1.22-.764.377-1.72.242.291.561.44 1.332.15.77.22 2.52.044 1.102.117 1.685l.124.974-1.64-.917-.066-.869a3 3 0 0 0-.015-.163l-.058-.53-.034-.942-.04-1.01a9 9 0 0 0-.255-1.38q-.16-.551-.358-.865-.2-.315-.876-.694l-.36-.2-2.343 4.191zM248.572-361.097l1.356-4.16-3.903 1.861zm2.58-6.321.823.744-3.763 11.55-1.2-1.082 1.099-3.412-3.493-3.155-3.214 1.504-1.205-1.088zM267.824-347.767l.85 1.236-9.088 6.255-.77-1.119 2.818-10.894-7 4.817-.842-1.223 9.09-6.254.724 1.054-2.841 10.986zM270.444-327.905l3.092-3.095-4.322-.108zm5.161-4.469.399 1.037-8.584 8.596-.58-1.509 2.525-2.545-1.688-4.394-3.547-.114-.582-1.516zM279.866-318.562l1.51 9.092-1.385.23-.631-3.794-9.512 1.582-.26-1.566 9.51-1.582-.62-3.731zM281.893-298.592l-.21 6.251-1.404-.048.155-4.672-3.36-.112-.153 4.515-1.413-.048.152-4.514-3.426-.115-.16 4.822-1.406-.047.214-6.401zM278.02-272.328l-.376 1.453-10.682-2.762.34-1.315 10.073-5.014-8.226-2.127.372-1.437 10.682 2.76-.322 1.239-10.158 5.058zM266.075-259.994l1.195-.738q1.126-.694 1.938-.817a2.58 2.58 0 0 1 1.587.273q1.16.591 1.473 1.766t-.341 2.463a4.45 4.45 0 0 1-1.844 1.906l-1.597-.814q1.565-.541 2.189-1.766.351-.69.258-1.295-.092-.606-.591-.86-.441-.225-.993-.095-.553.13-1.345.638l-1.184.75q-1.99 1.251-3.65.404-1.184-.603-1.518-1.77-.335-1.169.31-2.435.743-1.456 2.248-2.195l1.787.91q-2.026.404-2.79 1.902-.337.66-.193 1.29.144.625.699.909.896.457 2.362-.426M264.415-245.084l-.94 1.27-8.872-6.558.938-1.27zM249.34-237.49l1.37-.313q1.29-.291 2.099-.143.807.145 1.412.77.906.935.822 2.15-.082 1.211-1.12 2.218a4.45 4.45 0 0 1-2.36 1.207l-1.247-1.287q1.652-.007 2.64-.963.556-.539.666-1.142.106-.602-.283-1.004-.344-.356-.909-.41-.562-.057-1.479.167l-1.363.326q-2.287.54-3.585-.799-.922-.952-.862-2.167.06-1.212 1.081-2.203 1.173-1.137 2.839-1.35l1.395 1.442q-2.048-.276-3.255.896-.533.516-.598 1.157-.069.64.363 1.086.704.722 2.373.362M149.887-224.32q.314.17.517.432.202.264.295.574.091.31.06.643a1.7 1.7 0 0 1-.202.645 1.68 1.68 0 0 1-1.645.887 1.6 1.6 0 0 1-.644-.196 1.6 1.6 0 0 1-.515-.433 1.75 1.75 0 0 1-.377-1.227q.026-.338.196-.65a1.6 1.6 0 0 1 .44-.52q.27-.209.583-.299a1.7 1.7 0 0 1 1.292.144M168.516-221.663l1.525.411-2.871 10.652-1.525-.41zM180.72-219.222l4.877.426-.122 1.4-3.446-.3-.243 2.777q.168 0 .34.014 1.597.14 2.543 1.2.947 1.062.815 2.565-.135 1.55-1.24 2.432-1.102.883-2.723.742a5.66 5.66 0 0 1-2.54-.872l.141-1.621q1.12.875 2.253.975.993.086 1.715-.434.724-.52.797-1.361.077-.873-.605-1.524-.68-.648-1.774-.745-.936-.081-1.288.046zM196.472-214.314l.094-.008q1.029-.09 1.533-.561.503-.47.433-1.282-.063-.731-.627-1.143-.563-.411-1.412-.338-.858.075-1.858.7l-.13-1.502a4.6 4.6 0 0 1 2.052-.662q1.518-.131 2.464.587.946.719 1.065 2.094.072.834-.217 1.434-.29.599-.994 1.071.668.196.998.536.33.341.541.846.21.506.26 1.089.125 1.439-.754 2.465-.879 1.022-2.342 1.149a5.2 5.2 0 0 1-2.468-.397l-.149-1.715q1.31.67 2.485.57.793-.069 1.237-.583.443-.514.376-1.292a1.75 1.75 0 0 0-.5-1.106 1.5 1.5 0 0 0-.56-.36q-.297-.106-1.259-.141l-.144-.003zM210.148-221.202l1.526-.406 2.84 10.66-1.526.407zM230.195-224.156q.315-.169.646-.194.33-.024.64.069a1.69 1.69 0 0 1 1 .826q.167.313.197.646.03.334-.063.644a1.646 1.646 0 0 1-.815 1.002q-.308.165-.645.193a1.731 1.731 0 0 1-1.232-.361 1.6 1.6 0 0 1-.435-.52 1.6 1.6 0 0 1-.194-.653 1.697 1.697 0 0 1 .382-1.227c.14-.174.316-.316.519-.425"/><path fill="#fccb06" fill-rule="evenodd" d="M200.702-361.327c-.72-1.501-2.267-2.211-3.468-1.865-1.694-.72-4.11-1.164-6.99-1.164-2.958 0-5.37.439-7.051 1.168-.002-.005 0 .005 0 0-1.201-.36-2.783.352-3.506 1.86-.693 1.445-.296 3.532 1.092 4.101 1.31.537 2.687.606 4.586.606l-.003-.01h2.058c.898.114 1.835.195 2.825.195s1.963-.081 2.861-.194h1.92l-.002.009c1.899 0 3.276-.069 4.588-.606 1.382-.569 1.781-2.656 1.09-4.1"/><path fill="#d62934" fill-rule="evenodd" d="M190.628-361.991c0-1.48 1.525-2.515 2.806-2.347 1.544.206 2.66 1.636 2.274 3.166-.317 1.286-.82 2.537-1.368 3.749-.38.83-2.69 1.305-3.374.74-.22-.18-.338-.592-.338-.91zM197.214-363.188c1.204-.36 2.765.352 3.487 1.86.694 1.446.292 3.532-1.09 4.1-1.312.538-2.689.606-4.587.606.633-2.324 1.54-4.167 2.19-6.566M189.758-361.991c0-1.48-1.523-2.515-2.802-2.347-1.546.206-2.663 1.636-2.279 3.166.324 1.286.825 2.537 1.371 3.749.376.83 2.69 1.305 3.376.74.22-.18.334-.592.334-.91zM183.193-363.188c-1.201-.36-2.783.352-3.506 1.86-.693 1.446-.296 3.532 1.092 4.1 1.31.538 2.686.606 4.586.606-.635-2.324-1.518-4.167-2.172-6.566"/><path fill="#fccb06" d="M192.386-367.899h-1.539v-1.54h-1.318v1.54h-1.54v1.319h1.54v1.54h1.318v-1.54h1.54z"/><path fill="#fccb06" fill-rule="evenodd" d="M184.051-354.215a.879.879 0 1 1-1.758 0 .878.878 0 1 1 1.758 0"/><path fill="#fccb06" fill-rule="evenodd" d="M185.812-354.215a.882.882 0 0 1-1.761 0 .88.88 0 0 1 1.761 0"/><path fill="#fccb06" fill-rule="evenodd" d="M187.573-354.215a.881.881 0 1 1-.88-.88c.485 0 .88.395.88.88"/><path fill="#fccb06" fill-rule="evenodd" d="M189.333-354.215a.881.881 0 1 1-1.759 0 .881.881 0 0 1 1.759 0"/><path fill="#fccb06" fill-rule="evenodd" d="M191.093-354.215a.881.881 0 0 1-1.76 0 .881.881 0 0 1 1.76 0M192.854-354.215a.882.882 0 0 1-1.761 0 .881.881 0 0 1 1.761 0"/><path fill="#fccb06" fill-rule="evenodd" d="M194.61-354.215a.88.88 0 0 1-.874.881.88.88 0 0 1-.882-.88.88.88 0 1 1 1.757 0"/><path fill="#fccb06" fill-rule="evenodd" d="M196.376-354.215a.88.88 0 0 1-.88.881.886.886 0 0 1-.886-.88c0-.486.4-.88.887-.88a.88.88 0 0 1 .88.88"/><path fill="#fccb06" fill-rule="evenodd" d="M198.134-354.215a.878.878 0 1 1-1.758 0 .878.878 0 1 1 1.758 0"/></g></svg>