<svg xmlns="http://www.w3.org/2000/svg" width="509.893" height="166.533"><path d="M981.168 1248.99v-248.41H754.355V1.43H485.668v999.15H257.699v248.41zM1246.84 399.094l-37.55-11.969c-61.04-19.457-123.9-31.66-187.44-36.383l-68.198-1.73L1200.59 2.422h331.55z" style="fill:#d21a38;fill-opacity:1;fill-rule:nonzero;stroke:none" transform="matrix(.13333 0 0 -.13333 0 166.533)"/><path d="m434.141 169.48-79.989 4.641-12.73 71.91-39.895-68.859-84.199 4.867 58.352-50.008-40.035-71.312 76.222 39.761 75.332-48.539-23.254 72.52zM207.695 416.699l-74.55 4.321-11.997 64.8-37.05-61.957L5.62 428.41l54.469-45.156-48.094-63.527 81.875 35.043 59.156-43.215-10.668 64.722zM182.078 685.355l-67.176 3.895-10.988 55.273-33.203-52.714L0 695.906l49.195-38.644-43.148-54.024 73.664 29.645 53.41-37.004-9.789 55.203zM307.648 893.367l-58.437 3.387-9.816 43.629-28.629-41.399-61.512 3.563 42.969-30.699-37.274-42.387 63.922 23.023 46.629-29.429-8.777 43.57zM1459.4 991.199c-23.11 52.931-56.17 98.421-99.2 136.501-43.06 38.07-95.33 67.91-157.23 88.33-100.16 33.02-195.69 31.24-195.69 31.24 0-82.88.41-164.58 0-248.028 43.57-4.344 90.21-16.066 132.06-48.195 41.77-32.109 62.68-79.121 62.68-140.965v-3.559c0-53.531-19.96-98.453-59.9-134.722-39.95-36.305-96.08-54.438-168.432-54.438l-194.579-.332c.411-81.957 0-162.324 0-244.117H964.32c73.61 0 142.54 9.203 206.82 27.664 64.28 18.426 120.4 46.086 168.46 82.973 48.02 36.847 85.76 82.66 113.25 137.39 27.42 54.707 41.17 118.348 41.17 190.938v3.559c0 64.238-11.54 122.812-34.62 175.761" style="fill:#fbc811;fill-opacity:1;fill-rule:nonzero;stroke:none" transform="matrix(.13333 0 0 -.13333 0 166.533)"/><path d="M1861.58 1029.36c10.09 0 17.93 2.65 23.5 7.96s8.36 11.89 8.36 19.72v.52c0 9.05-2.92 15.93-8.75 20.63s-13.8 7.05-23.89 7.05h-31.08v-55.88zm-72.07 92.18h74.68c10.97 0 20.76-1.53 29.38-4.57q12.93-4.575 21.93-12.93c6.01-5.57 10.62-12.23 13.85-19.97 3.22-7.75 4.83-16.32 4.83-25.72v-.53c0-10.62-1.92-19.93-5.75-27.94s-9.1-14.71-15.8-20.11c-6.7-5.39-14.54-9.44-23.5-12.137-8.97-2.703-18.58-4.051-28.85-4.051h-30.56V938.75h-40.21zM1961.59 1129.37h39.7V938.75h-39.7zM2090.33 963.555c9.41 0 16.93 2.261 22.59 6.793 5.66 4.519 8.49 10.441 8.49 17.75v7.054c-3.49 1.567-7.36 2.825-11.62 3.786-4.27.953-8.84 1.442-13.71 1.442-8.54 0-15.24-1.661-20.11-4.966-4.87-3.309-7.31-8.098-7.31-14.367v-.524c0-5.39 2-9.574 6-12.531 4.01-2.965 9.23-4.437 15.67-4.437m-12.01-27.422c-6.62 0-12.84.914-18.67 2.746-5.84 1.828-10.93 4.566-15.28 8.226-4.35 3.653-7.79 8.129-10.31 13.446-2.53 5.308-3.79 11.445-3.79 18.41v.519c0 7.661 1.39 14.278 4.18 19.844 2.78 5.566 6.66 10.186 11.62 13.846q7.44 5.475 17.76 8.22c6.87 1.83 14.49 2.75 22.85 2.75 7.13 0 13.35-.53 18.67-1.57 5.31-1.05 10.48-2.44 15.53-4.18v2.35c0 8.36-2.52 14.71-7.57 19.06s-12.53 6.53-22.45 6.53c-7.67 0-14.41-.65-20.24-1.95-5.84-1.31-11.97-3.19-18.41-5.62l-9.92 30.29c7.65 3.31 15.66 6 24.02 8.1 8.35 2.08 18.45 3.13 30.29 3.13 10.97 0 20.33-1.35 28.07-4.05 7.75-2.7 14.15-6.57 19.19-11.62 5.23-5.22 9.06-11.62 11.5-19.19 2.43-7.57 3.65-16.06 3.65-25.46v-81.21h-38.39v15.141q-7.305-8.092-17.49-12.926c-6.79-3.215-15.06-4.832-24.81-4.832M2193.22 1078.71h39.69v-20.01c2.26 2.98 4.74 5.84 7.44 8.55 2.7 2.72 5.7 5.13 9.01 7.23 3.3 2.11 6.96 3.77 10.97 5 4 1.23 8.53 1.84 13.58 1.84 15.14 0 26.85-4.61 35.12-13.84s12.4-21.93 12.4-38.12v-90.61h-39.69v77.88c0 9.38-2.09 16.46-6.27 21.23-4.17 4.77-10.09 7.17-17.75 7.17s-13.71-2.4-18.15-7.17-6.66-11.85-6.66-21.23v-77.88h-39.69zM2501.87 969.824c4.7 0 9.1.914 13.19 2.739q6.135 2.74 10.71 7.835c3.04 3.395 5.48 7.481 7.31 12.274 1.83 4.781 2.74 10.048 2.74 15.798v.52c0 5.74-.91 11.01-2.74 15.8-1.83 4.78-4.27 8.88-7.31 12.27q-4.575 5.1-10.71 7.83c-4.09 1.84-8.49 2.75-13.19 2.75s-9.1-.91-13.18-2.75c-4.1-1.82-7.71-4.43-10.84-7.83-3.14-3.39-5.62-7.44-7.44-12.14-1.83-4.7-2.75-10.01-2.75-15.93v-.52c0-5.75.92-11.017 2.75-15.798 1.82-4.793 4.3-8.879 7.44-12.274 3.13-3.398 6.74-6.007 10.84-7.835 4.08-1.825 8.48-2.739 13.18-2.739m-10.18-33.691c-8.19 0-16.11 1.57-23.77 4.703s-14.45 7.789-20.36 13.969c-5.93 6.179-10.67 13.75-14.24 22.718-3.57 8.965-5.35 19.282-5.35 30.947v.52c0 11.66 1.78 21.97 5.35 30.94s8.27 16.54 14.1 22.72 12.58 10.84 20.24 13.98c7.66 3.13 15.67 4.69 24.03 4.69 10.61 0 19.36-2.09 26.24-6.27 6.88-4.17 12.66-9.05 17.36-14.62v68.94h39.7V938.75h-39.7v20.102c-4.87-6.618-10.75-12.055-17.62-16.321-6.88-4.258-15.54-6.398-25.98-6.398M2702.42 1019.7c-1.22 8.87-4.36 16.06-9.4 21.54-5.06 5.49-11.75 8.23-20.11 8.23s-15.11-2.71-20.24-8.1c-5.14-5.4-8.49-12.62-10.05-21.67zm-25.59-84.091c-10.45 0-20.16 1.746-29.12 5.227-8.97 3.48-16.71 8.441-23.24 14.883-6.53 6.437-11.62 14.058-15.28 22.847-3.65 8.793-5.48 18.582-5.48 29.384v.52c0 9.92 1.7 19.32 5.09 28.2 3.4 8.88 8.14 16.62 14.23 23.24 6.1 6.61 13.36 11.84 21.81 15.67 8.44 3.83 17.8 5.74 28.07 5.74 11.66 0 21.76-2.09 30.29-6.27 8.53-4.17 15.62-9.78 21.28-16.84 5.66-7.05 9.84-15.14 12.54-24.28q4.05-13.71 4.05-28.59c0-1.57-.05-3.23-.14-4.96-.08-1.751-.22-3.575-.39-5.493h-97.4c1.91-9.051 5.88-15.883 11.88-20.496 6.01-4.614 13.45-6.918 22.33-6.918 6.61 0 12.53 1.125 17.76 3.394 5.22 2.262 10.61 5.914 16.18 10.969l22.72-20.113c-6.61-8.18-14.62-14.578-24.02-19.192-9.4-4.605-20.46-6.922-33.16-6.922M1873.65 737.344c9.92 0 17.54 2.347 22.85 7.051 5.31 4.703 7.97 10.968 7.97 18.8v.524c0 8.703-2.79 15.23-8.36 19.586-5.58 4.347-13.32 6.527-23.24 6.527h-39.96v-52.488zm-80.95 88.789h83.56c23.15 0 40.91-6.184 53.27-18.543 10.45-10.445 15.67-24.379 15.67-41.781v-.524c0-14.801-3.61-26.855-10.84-36.164-7.22-9.316-16.67-16.152-28.33-20.5l44.65-65.281h-47l-39.17 58.488h-31.599999999999998V643.34h-40.21zM2069.23 724.285c-1.21 8.879-4.35 16.063-9.4 21.543-5.05 5.488-11.74 8.231-20.1 8.231s-15.11-2.704-20.24-8.098q-7.71-8.098-10.05-21.676zm-25.58-84.086c-10.45 0-20.16 1.75-29.12 5.227-8.97 3.48-16.71 8.441-23.24 14.883-6.53 6.437-11.62 14.058-15.28 22.847-3.65 8.793-5.48 18.582-5.48 29.379v.524c0 9.925 1.69 19.324 5.09 28.203 3.39 8.879 8.14 16.625 14.23 23.242q9.135 9.92 21.81 15.664c8.44 3.832 17.79 5.75 28.07 5.75 11.66 0 21.76-2.094 30.29-6.273 8.53-4.176 15.62-9.79 21.28-16.84 5.66-7.047 9.83-15.145 12.54-24.285 2.69-9.137 4.04-18.672 4.04-28.594 0-1.571-.04-3.227-.13-4.961q-.135-2.612-.39-5.488h-97.4c1.91-9.051 5.87-15.879 11.88-20.493 6.01-4.617 13.45-6.921 22.33-6.921 6.61 0 12.53 1.128 17.75 3.398 5.23 2.258 10.62 5.91 16.19 10.965l22.72-20.11c-6.62-8.183-14.62-14.582-24.02-19.195-9.4-4.605-20.46-6.922-33.16-6.922M2203.46 640.199c-10.45 0-20.16 1.922-29.12 5.75-8.97 3.828-16.67 9.008-23.11 15.539-6.44 6.528-11.49 14.184-15.15 22.977-3.65 8.789-5.48 18.148-5.48 28.07v.524c0 9.925 1.83 19.324 5.48 28.203q5.49 13.318 15.15 23.242c6.44 6.613 14.14 11.836 23.11 15.664q13.44 5.749 29.64 5.75c13.23 0 24.19-2.094 32.9-6.273q13.05-6.266 22.98-17.231l-24.28-26.113q-6.795 7.048-13.98 11.226c-4.79 2.786-10.75 4.18-17.89 4.18-5.05 0-9.62-1.004-13.71-3.004-4.09-2.004-7.66-4.746-10.7-8.223q-4.575-5.23-7.05-12.148c-1.66-4.613-2.48-9.527-2.48-14.75v-.523c0-5.399.82-10.446 2.48-15.149 1.65-4.699 4.05-8.789 7.18-12.273 3.13-3.477 6.88-6.223 11.23-8.219 4.35-2.004 9.23-3.004 14.62-3.004 6.62 0 12.4 1.348 17.36 4.047q7.455 4.047 14.76 10.836l23.24-23.504c-6.78-7.488-14.54-13.621-23.24-18.406-8.71-4.789-20.02-7.188-33.94-7.188M2332.98 640.723c-15.15 0-26.86 4.613-35.12 13.84-8.28 9.226-12.41 21.941-12.41 38.128v90.614h39.69v-77.891c0-9.379 2.09-16.457 6.27-21.226 4.18-4.774 10.09-7.165 17.76-7.165 7.65 0 13.7 2.391 18.14 7.165 4.44 4.769 6.66 11.847 6.66 21.226v77.891h39.69V643.34h-39.69v20.012a85 85 0 0 0-7.44-8.555 52.4 52.4 0 0 0-9-7.231c-3.32-2.109-6.97-3.773-10.98-5-4-1.222-8.53-1.843-13.57-1.843M2522.29 674.414c4.7 0 9.1.914 13.19 2.738 4.08 1.832 7.69 4.442 10.84 7.836q4.695 5.092 7.44 12.141c1.83 4.699 2.74 10.012 2.74 15.93v.523c0 5.742-.91 11.008-2.74 15.801-1.83 4.781-4.31 8.875-7.44 12.269-3.15 3.395-6.76 6.008-10.84 7.832-4.09 1.832-8.49 2.743-13.19 2.743-4.69 0-9.09-.911-13.19-2.743-4.09-1.824-7.66-4.437-10.7-7.832-3.05-3.394-5.49-7.488-7.31-12.269-1.83-4.793-2.74-10.059-2.74-15.801v-.523c0-5.746.91-11.012 2.74-15.797 1.82-4.789 4.26-8.879 7.31-12.274 3.04-3.394 6.61-6.004 10.7-7.836 4.1-1.824 8.5-2.738 13.19-2.738m-73.11 108.891h39.69v-20.11c4.87 6.618 10.74 12.055 17.63 16.325 6.86 4.257 15.53 6.398 25.98 6.398q12.255-.002 23.76-4.703c7.66-3.133 14.45-7.793 20.36-13.973 5.92-6.179 10.67-13.75 14.23-22.719 3.57-8.968 5.36-19.281 5.36-30.941v-.523c0-11.664-1.79-21.981-5.36-30.946-3.56-8.968-8.27-16.539-14.09-22.718-5.84-6.176-12.59-10.836-20.24-13.969-7.67-3.129-15.67-4.703-24.02-4.703-10.63 0-19.37 2.093-26.24 6.269-6.88 4.184-12.67 9.055-17.37 14.625v-60.062h-39.69zM2717.35 724.285c-1.22 8.879-4.35 16.063-9.4 21.543-5.05 5.488-11.75 8.231-20.11 8.231-8.35 0-15.1-2.704-20.24-8.098q-7.695-8.098-10.05-21.676zm-25.59-84.086c-10.44 0-20.15 1.75-29.12 5.227-8.96 3.48-16.7 8.441-23.24 14.883-6.52 6.437-11.61 14.058-15.27 22.847-3.66 8.793-5.49 18.582-5.49 29.379v.524q0 14.886 5.1 28.203c3.39 8.879 8.13 16.625 14.23 23.242q9.135 9.92 21.81 15.664c8.44 3.832 17.79 5.75 28.06 5.75 11.66 0 21.77-2.094 30.3-6.273 8.52-4.176 15.62-9.79 21.28-16.84 5.66-7.047 9.83-15.145 12.53-24.285 2.7-9.137 4.05-18.672 4.05-28.594 0-1.571-.04-3.227-.13-4.961q-.135-2.612-.39-5.488h-97.4c1.91-9.051 5.87-15.879 11.88-20.493 6-4.617 13.44-6.921 22.32-6.921 6.62 0 12.54 1.128 17.76 3.398 5.22 2.258 10.62 5.91 16.19 10.965l22.72-20.11c-6.62-8.183-14.62-14.582-24.02-19.195-9.4-4.605-20.47-6.922-33.17-6.922M2785.51 783.305h39.69v-28.203c4 9.57 9.49 17.234 16.45 22.98q10.44 8.614 28.2 7.836v-41.523h-2.08c-13.24 0-23.64-4.008-31.21-12.012-7.58-8.008-11.36-20.457-11.36-37.34V643.34h-39.69zM2946.37 668.145c9.4 0 16.92 2.261 22.58 6.793 5.66 4.523 8.49 10.445 8.49 17.753v7.051c-3.49 1.567-7.36 2.824-11.62 3.785-4.27.953-8.84 1.438-13.71 1.438-8.53 0-15.24-1.656-20.11-4.961-4.87-3.309-7.31-8.098-7.31-14.367v-.52c0-5.394 2-9.574 6.01-12.531 4-2.965 9.22-4.441 15.67-4.441m-12.02-27.422c-6.62 0-12.84.914-18.67 2.746-5.83 1.828-10.92 4.566-15.27 8.226-4.36 3.653-7.8 8.129-10.32 13.45-2.52 5.308-3.79 11.441-3.79 18.406v.519c0 7.66 1.39 14.278 4.18 19.848 2.78 5.57 6.66 10.187 11.62 13.844q7.44 5.479 17.76 8.222c6.87 1.829 14.49 2.743 22.85 2.743 7.13 0 13.36-.524 18.67-1.567a118 118 0 0 0 15.54-4.176v2.348c0 8.356-2.53 14.707-7.58 19.063-5.05 4.351-12.53 6.527-22.45 6.527-7.66 0-14.41-.652-20.24-1.957-5.84-1.305-11.97-3.18-18.42-5.617l-9.92 30.293q11.49 4.957 24.03 8.097c8.36 2.086 18.45 3.133 30.29 3.133 10.97 0 20.33-1.351 28.07-4.051q11.61-4.048 19.2-11.617c5.22-5.223 9.05-11.621 11.48-19.195 2.45-7.57 3.66-16.059 3.66-25.461V643.34h-38.39v15.14c-4.87-5.39-10.7-9.703-17.49-12.925-6.79-3.215-15.06-4.832-24.81-4.832M3115.32 640.199c-10.45 0-20.16 1.922-29.12 5.75-8.97 3.828-16.68 9.008-23.11 15.539-6.44 6.528-11.49 14.184-15.15 22.977-3.65 8.789-5.48 18.148-5.48 28.07v.524c0 9.925 1.83 19.324 5.48 28.203q5.49 13.318 15.15 23.242c6.43 6.613 14.14 11.836 23.11 15.664q13.44 5.749 29.64 5.75c13.23 0 24.19-2.094 32.9-6.273q13.05-6.266 22.98-17.231l-24.28-26.113c-4.53 4.699-9.19 8.441-13.97 11.226-4.8 2.786-10.76 4.18-17.9 4.18-5.05 0-9.62-1.004-13.7-3.004q-6.15-3.007-10.71-8.223-4.575-5.23-7.05-12.148c-1.65-4.613-2.48-9.527-2.48-14.75v-.523c0-5.399.83-10.446 2.48-15.149 1.65-4.699 4.05-8.789 7.18-12.273 3.14-3.477 6.87-6.223 11.23-8.219 4.35-2.004 9.23-3.004 14.63-3.004 6.61 0 12.4 1.348 17.36 4.047q7.44 4.047 14.76 10.836l23.24-23.504c-6.79-7.488-14.55-13.621-23.24-18.406-8.72-4.789-20.03-7.188-33.95-7.188M3200.19 783.305h39.69V643.34h-39.69zm-1.05 50.656h41.78v-35.25h-41.78zM3360.52 844.934l34.2-14.887-33.43-31.336h-30.28zm-14.11-170.52c5.75 0 10.84 1 15.28 3.004 4.44 1.996 8.23 4.742 11.36 8.219 3.13 3.484 5.53 7.531 7.18 12.148 1.65 4.61 2.48 9.528 2.48 14.75v.524q0 7.833-2.61 14.754a37.3 37.3 0 0 1-7.57 12.273c-3.31 3.566-7.23 6.398-11.76 8.484q-6.795 3.136-14.88 3.137c-5.75 0-10.84-1.004-15.28-3.004-4.44-2.004-8.22-4.746-11.36-8.223-3.13-3.488-5.53-7.535-7.17-12.148-1.66-4.613-2.48-9.527-2.48-14.75v-.523c0-5.223.86-10.145 2.6-14.754 1.74-4.617 4.27-8.707 7.58-12.274 3.3-3.57 7.18-6.398 11.62-8.484s9.44-3.133 15.01-3.133m-.52-34.215c-10.79 0-20.81 1.879-30.03 5.621-9.23 3.743-17.19 8.879-23.89 15.407-6.71 6.527-11.97 14.187-15.8 22.984-3.84 8.781-5.75 18.227-5.75 28.324v.524c0 10.093 1.91 19.539 5.75 28.332 3.83 8.793 9.13 16.496 15.93 23.113 6.79 6.613 14.79 11.836 24.02 15.664 9.23 3.832 19.33 5.75 30.29 5.75 10.79 0 20.81-1.879 30.03-5.617 9.23-3.746 17.19-8.879 23.89-15.406 6.7-6.532 11.97-14.192 15.8-22.985 3.84-8.789 5.75-18.234 5.75-28.328v-.523c0-10.098-1.91-19.543-5.75-28.329-3.83-8.796-9.13-16.5-15.93-23.113-6.79-6.617-14.8-11.84-24.02-15.668-9.23-3.828-19.32-5.75-30.29-5.75M3450.6 783.305h39.69v-20.008a85 85 0 0 0 7.44 8.547 52 52 0 0 0 9.02 7.226c3.3 2.11 6.96 3.774 10.96 5 4.01 1.231 8.54 1.848 13.58 1.848 15.15 0 26.85-4.617 35.13-13.844 8.26-9.226 12.4-21.933 12.4-38.125V643.34h-39.7v77.883c0 9.375-2.08 16.453-6.26 21.23-4.18 4.774-10.1 7.164-17.75 7.164-7.67 0-13.72-2.39-18.16-7.164-4.43-4.777-6.66-11.855-6.66-21.23V643.34h-39.69zM3602.32 617.484c18.38 1.918 26.87 10.536 25.49 25.856h-16.09v41.777h42.04v-35.25c0-17.234-4.15-29.64-12.46-37.211-8.31-7.578-20.17-11.449-35.59-11.621zM1829.67 486.098h-55.62v37.086h151.46v-37.086h-55.62V340.387h-40.22zM1952.14 480.355h39.7v-28.207c4 9.575 9.48 17.243 16.44 22.981 6.97 5.75 16.37 8.359 28.21 7.836v-41.52h-2.09q-19.845-.002-31.2-12.015c-7.58-8.012-11.36-20.457-11.36-37.34v-51.703h-39.7zM2113 365.191q14.1 0 22.59 6.789c5.66 4.524 8.48 10.446 8.48 17.758v7.051c-3.48 1.563-7.35 2.828-11.62 3.785-4.26.953-8.83 1.438-13.7 1.438-8.54 0-15.24-1.657-20.11-4.961-4.88-3.313-7.31-8.098-7.31-14.36v-.523c0-5.398 1.99-9.582 6-12.539s9.23-4.438 15.67-4.438m-12.01-27.414c-6.62 0-12.84.914-18.67 2.735-5.84 1.832-10.93 4.578-15.28 8.23q-6.525 5.481-10.32 13.446c-2.52 5.308-3.78 11.449-3.78 18.41v.527c0 7.652 1.39 14.27 4.18 19.844 2.78 5.566 6.66 10.179 11.62 13.84 4.96 3.652 10.88 6.398 17.75 8.222q10.32 2.742 22.86 2.742 10.695.001 18.66-1.562a117 117 0 0 0 15.54-4.184v2.352c0 8.359-2.52 14.711-7.57 19.066-5.05 4.348-12.53 6.528-22.46 6.528-7.66 0-14.4-.653-20.23-1.961-5.84-1.309-11.98-3.176-18.42-5.61l-9.92 30.289q11.49 4.957 24.03 8.098c8.35 2.09 18.45 3.133 30.29 3.133 10.96 0 20.32-1.356 28.07-4.047 7.74-2.699 14.14-6.57 19.19-11.625 5.23-5.219 9.05-11.621 11.49-19.191q3.66-11.358 3.66-25.457v-81.215h-38.39v15.144c-4.87-5.398-10.7-9.711-17.5-12.929-6.78-3.215-15.05-4.825-24.8-4.825M2215.89 480.355h39.69v-20.011a85 85 0 0 0 7.44 8.547c2.7 2.722 5.7 5.129 9.01 7.23 3.3 2.109 6.96 3.774 10.97 4.996 4 1.235 8.52 1.848 13.58 1.848 15.14 0 26.85-4.613 35.12-13.84 8.26-9.227 12.4-21.941 12.4-38.125v-90.613h-39.69v77.886q0 14.07-6.27 21.231c-4.18 4.769-10.09 7.16-17.76 7.16-7.66 0-13.7-2.391-18.14-7.16q-6.66-7.162-6.66-21.231v-77.886h-39.69zM2427.66 337.777c-9.92 0-20.07 1.692-30.42 5.086-10.36 3.399-20.24 8.75-29.64 16.067l16.97 26.105c7.66-5.574 15.28-9.75 22.85-12.531 7.58-2.781 14.67-4.176 21.28-4.176 5.75 0 9.97.953 12.67 2.867q4.05 2.873 4.05 7.578v.524c0 2.086-.78 3.914-2.35 5.48s-3.7 2.914-6.4 4.047q-4.05 1.7-9.27 3.266a624 624 0 0 0-10.97 3.398 148 148 0 0 0-14.75 5.086c-4.97 2-9.45 4.617-13.45 7.836-4.01 3.215-7.27 7.18-9.8 11.883-2.52 4.695-3.78 10.445-3.78 17.234v.524c0 7.129 1.35 13.445 4.05 18.929 2.7 5.489 6.35 10.141 10.97 13.973 4.6 3.828 10 6.703 16.19 8.617 6.17 1.91 12.83 2.871 19.97 2.871 8.88 0 17.89-1.433 27.03-4.308q13.71-4.3 25.2-11.883l-15.15-27.422q-10.44 6.01-20.37 9.535c-6.61 2.356-12.44 3.528-17.49 3.528-4.88 0-8.53-.918-10.97-2.746-2.44-1.825-3.66-4.137-3.66-6.922v-.52c0-1.914.79-3.613 2.36-5.09 1.56-1.48 3.65-2.875 6.26-4.183 2.62-1.301 5.62-2.563 9.01-3.782 3.4-1.214 7.01-2.441 10.84-3.66q7.305-2.347 14.88-5.609c5.05-2.18 9.58-4.832 13.58-7.965s7.31-6.965 9.93-11.488c2.61-4.531 3.91-10.012 3.91-16.457v-.52q0-11.754-4.05-20.238c-2.7-5.656-6.48-10.316-11.36-13.969-4.87-3.652-10.57-6.398-17.1-8.23-6.53-1.821-13.54-2.735-21.02-2.735M2516.44 446.406h-16.45v32.641h16.45v8.879c0 15.148 3.75 26.461 11.23 33.949 7.32 7.313 18.02 10.965 32.12 10.965 6.27 0 11.62-.348 16.06-1.043s8.49-1.656 12.14-2.875v-32.895a74 74 0 0 1-8.61 2.481c-2.79.601-5.92.906-9.4.906q-14.37 0-14.37-15.141v-5.484h32.12v-32.383h-31.59V340.387h-39.7zM2678.6 371.461c5.75 0 10.84.996 15.28 3 4.44 2 8.23 4.742 11.36 8.23 3.13 3.477 5.52 7.524 7.18 12.137 1.65 4.613 2.48 9.535 2.48 14.758v.519c0 5.227-.87 10.141-2.61 14.754a37.3 37.3 0 0 1-7.57 12.278c-3.31 3.566-7.23 6.394-11.75 8.484-4.53 2.086-9.49 3.137-14.89 3.137-5.74 0-10.84-1.004-15.28-3.008-4.44-1.996-8.22-4.742-11.35-8.223-3.14-3.488-5.53-7.531-7.19-12.144-1.65-4.613-2.48-9.531-2.48-14.754v-.524c0-5.218.87-10.14 2.62-14.753 1.73-4.614 4.26-8.707 7.57-12.266 3.3-3.578 7.18-6.398 11.62-8.496 4.44-2.086 9.44-3.129 15.01-3.129m-.52-34.207c-10.79 0-20.8 1.867-30.03 5.609-9.23 3.746-17.19 8.879-23.89 15.407-6.71 6.527-11.97 14.187-15.8 22.984-3.83 8.789-5.75 18.234-5.75 28.332v.519c0 10.098 1.92 19.543 5.75 28.336 3.83 8.789 9.14 16.489 15.93 23.114 6.79 6.609 14.79 11.836 24.02 15.664 9.23 3.832 19.33 5.746 30.29 5.746 10.79 0 20.8-1.875 30.03-5.613 9.23-3.75 17.19-8.875 23.9-15.403 6.7-6.535 11.97-14.195 15.8-22.984 3.82-8.797 5.74-18.242 5.74-28.336v-.524c0-10.097-1.92-19.542-5.74-28.332-3.83-8.793-9.14-16.492-15.93-23.109s-14.8-11.844-24.03-15.672c-9.23-3.824-19.32-5.738-30.29-5.738M2782.79 480.355h39.7v-28.207c4 9.575 9.48 17.243 16.45 22.981 6.96 5.75 16.36 8.359 28.2 7.836v-41.52h-2.09q-19.845-.002-31.2-12.015c-7.58-8.012-11.36-20.457-11.36-37.34v-51.703h-39.7zM2891.95 480.355h39.69v-20.011a85 85 0 0 0 7.44 8.547c2.7 2.722 5.7 5.129 9.01 7.23 3.3 2.109 7.01 3.774 11.1 4.996 4.09 1.235 8.66 1.848 13.71 1.848 9.22 0 17.19-1.93 23.89-5.785 6.7-3.86 11.88-9.379 15.54-16.571 6.09 7.36 12.88 12.934 20.37 16.7q11.22 5.658 25.59 5.656c14.8 0 26.37-4.356 34.73-13.055q12.54-13.067 12.54-38.387v-91.136h-39.7v77.886c0 9.379-2 16.457-6.01 21.231-4 4.769-9.75 7.16-17.23 7.16-7.49 0-13.36-2.391-17.63-7.16q-6.39-7.162-6.39-21.231v-77.886h-39.7v77.886q0 14.07-6 21.231c-4.01 4.769-9.75 7.16-17.24 7.16-7.48 0-13.36-2.391-17.62-7.16-4.27-4.774-6.4-11.852-6.4-21.231v-77.886h-39.69zM3191.73 365.191c9.4 0 16.92 2.262 22.59 6.789 5.65 4.524 8.48 10.446 8.48 17.758v7.051c-3.48 1.563-7.35 2.828-11.62 3.785-4.26.953-8.84 1.438-13.71 1.438-8.53 0-15.23-1.657-20.11-4.961-4.87-3.313-7.31-8.098-7.31-14.36v-.523c0-5.398 2-9.582 6.01-12.539 4-2.957 9.23-4.438 15.67-4.438m-12.01-27.414c-6.62 0-12.85.914-18.68 2.735-5.83 1.832-10.92 4.578-15.27 8.23q-6.54 5.481-10.32 13.446c-2.52 5.308-3.78 11.449-3.78 18.41v.527c0 7.652 1.39 14.27 4.17 19.844 2.79 5.566 6.66 10.179 11.62 13.84 4.97 3.652 10.88 6.398 17.76 8.222 6.88 1.828 14.5 2.742 22.85 2.742 7.14 0 13.36-.519 18.67-1.562a117 117 0 0 0 15.54-4.184v2.352c0 8.359-2.53 14.711-7.57 19.066-5.05 4.348-12.54 6.528-22.46 6.528-7.66 0-14.41-.653-20.24-1.961s-11.97-3.176-18.41-5.61l-9.92 30.289c7.66 3.305 15.67 6.004 24.02 8.098q12.54 3.134 30.3 3.133c10.96 0 20.32-1.356 28.07-4.047 7.74-2.699 14.14-6.57 19.19-11.625 5.22-5.219 9.05-11.621 11.49-19.191q3.66-11.358 3.66-25.457v-81.215h-38.39v15.144c-4.88-5.398-10.71-9.711-17.5-12.929-6.79-3.215-15.06-4.825-24.8-4.825M3360.68 337.254c-10.45 0-20.15 1.914-29.12 5.738-8.97 3.828-16.67 9.016-23.11 15.543-6.44 6.528-11.49 14.188-15.14 22.977q-5.49 13.184-5.49 28.074v.519q0 14.884 5.49 28.204c3.65 8.875 8.7 16.621 15.14 23.246 6.44 6.609 14.14 11.836 23.11 15.664q13.455 5.747 29.64 5.746c13.23 0 24.2-2.086 32.9-6.27 8.71-4.175 16.37-9.922 22.98-17.226l-24.28-26.121c-4.53 4.703-9.19 8.445-13.97 11.226-4.79 2.785-10.75 4.184-17.89 4.184q-7.575-.001-13.71-3.008c-4.09-1.996-7.66-4.742-10.7-8.223-3.05-3.488-5.4-7.531-7.06-12.144-1.65-4.613-2.48-9.531-2.48-14.754v-.524c0-5.398.83-10.445 2.48-15.14 1.66-4.703 4.05-8.797 7.18-12.274 3.14-3.488 6.88-6.23 11.23-8.23 4.35-2.004 9.23-3 14.63-3 6.61 0 12.4 1.344 17.36 4.047 4.97 2.699 9.88 6.305 14.76 10.836l23.24-23.504c-6.79-7.488-14.54-13.621-23.24-18.41-8.71-4.785-20.03-7.176-33.95-7.176M3445.55 480.355h39.69V340.387h-39.69zm-1.05 50.657h41.78v-35.25h-41.78zM3605.88 541.984l34.21-14.882-33.42-31.34h-30.3zm-14.1-170.523c5.75 0 10.84.996 15.28 3 4.43 2 8.22 4.742 11.35 8.23 3.14 3.477 5.53 7.524 7.19 12.137 1.65 4.613 2.48 9.535 2.48 14.758v.519c0 5.227-.87 10.141-2.61 14.754-1.75 4.614-4.27 8.707-7.58 12.278-3.31 3.566-7.22 6.394-11.75 8.484-4.53 2.086-9.49 3.137-14.88 3.137-5.75 0-10.84-1.004-15.28-3.008-4.44-1.996-8.22-4.742-11.36-8.223-3.13-3.488-5.53-7.531-7.18-12.144-1.66-4.613-2.48-9.531-2.48-14.754v-.524c0-5.218.87-10.14 2.61-14.753 1.74-4.614 4.26-8.707 7.57-12.266 3.31-3.578 7.19-6.398 11.63-8.496 4.44-2.086 9.43-3.129 15.01-3.129m-.52-34.207c-10.8 0-20.81 1.867-30.03 5.609-9.23 3.746-17.19 8.879-23.9 15.407-6.7 6.527-11.97 14.187-15.79 22.984-3.83 8.789-5.75 18.234-5.75 28.332v.519c0 10.098 1.92 19.543 5.75 28.336 3.82 8.789 9.14 16.489 15.92 23.114 6.79 6.609 14.8 11.836 24.03 15.664 9.22 3.832 19.32 5.746 30.29 5.746 10.79 0 20.8-1.875 30.03-5.613 9.23-3.75 17.19-8.875 23.89-15.403 6.7-6.535 11.97-14.195 15.8-22.984 3.83-8.797 5.75-18.242 5.75-28.336v-.524c0-10.097-1.92-19.542-5.75-28.332-3.83-8.793-9.14-16.492-15.93-23.109s-14.79-11.844-24.02-15.672c-9.23-3.824-19.32-5.738-30.29-5.738M3695.97 480.355h39.69v-20.011a85 85 0 0 0 7.44 8.547c2.7 2.722 5.7 5.129 9.01 7.23 3.3 2.109 6.96 3.774 10.97 4.996 4 1.235 8.52 1.848 13.58 1.848 15.14 0 26.85-4.613 35.12-13.84 8.26-9.227 12.4-21.941 12.4-38.125v-90.613h-39.69v77.886q0 14.07-6.27 21.231c-4.17 4.769-10.09 7.16-17.76 7.16-7.66 0-13.7-2.391-18.14-7.16q-6.66-7.162-6.66-21.231v-77.886h-39.69zM1827.45 0q-10.965 0-19.32 2.61a76.6 76.6 0 0 0-15.93 7.05l13.32 28.73c2.61-1.57 5.44-2.87 8.49-3.921 3.04-1.047 5.87-1.57 8.48-1.57 3.48 0 6.23.66 8.23 1.96 2 1.313 3.87 3.7 5.61 7.18l-54.83 140.492h42.04l31.85-95.32 30.55 95.32h41.27l-53.8-143.36c-2.61-7.132-5.4-13.19-8.35-18.152-2.97-4.96-6.23-9.007-9.8-12.14-3.57-3.14-7.61-5.39-12.14-6.79C1838.59.7 1833.37 0 1827.45 0M2114.16 136.57c9.93 0 17.54 2.352 22.86 7.051 5.31 4.699 7.96 10.969 7.96 18.809v.519c0 8.699-2.79 15.231-8.35 19.582-5.58 4.348-13.32 6.528-23.24 6.528h-39.96V136.57Zm-80.95 88.789h83.57c23.15 0 40.91-6.179 53.27-18.539 10.45-10.449 15.67-24.379 15.67-41.789v-.519c0-14.801-3.62-26.852-10.84-36.16-7.22-9.321-16.67-16.161-28.33-20.512l44.66-65.281h-47.01l-39.17 58.5h-31.599999999999998v-58.5h-40.22zM2309.75 123.512c-1.22 8.879-4.35 16.066-9.4 21.547-5.05 5.48-11.75 8.222-20.11 8.222-8.35 0-15.1-2.703-20.24-8.09-5.13-5.402-8.48-12.621-10.05-21.679zm-25.59-84.082c-10.44 0-20.15 1.742-29.12 5.218-8.96 3.48-16.7 8.442-23.24 14.883-6.52 6.45-11.61 14.059-15.27 22.86q-5.49 13.183-5.49 29.371v.519c0 9.93 1.7 19.328 5.1 28.207 3.39 8.871 8.13 16.621 14.23 23.242 6.09 6.61 13.36 11.84 21.81 15.668 8.44 3.832 17.79 5.743 28.06 5.743 11.66 0 21.77-2.082 30.3-6.27 8.52-4.172 15.62-9.781 21.28-16.84 5.66-7.051 9.83-15.152 12.53-24.281 2.7-9.148 4.05-18.668 4.05-28.602 0-1.558-.04-3.218-.13-4.957q-.135-2.614-.39-5.48h-97.4c1.91-9.05 5.87-15.89 11.88-20.5 6-4.621 13.44-6.922 22.32-6.922 6.62 0 12.54 1.133 17.76 3.39 5.22 2.262 10.62 5.923 16.19 10.97l22.72-20.098c-6.62-8.192-14.62-14.59-24.02-19.2-9.4-4.613-20.47-6.921-33.17-6.921M2427 39.95q-14.895.001-30.42 5.09c-10.36 3.401-20.24 8.75-29.64 16.07l16.97 26.1c7.66-5.57 15.28-9.741 22.85-12.53 7.58-2.782 14.66-4.168 21.29-4.168 5.74 0 9.96.949 12.66 2.86 2.7 1.917 4.04 4.437 4.04 7.577v.52q0 3.136-2.34 5.492c-1.57 1.558-3.71 2.91-6.4 4.039q-4.05 1.71-9.27 3.27c-3.49 1.039-7.14 2.171-10.97 3.402a145 145 0 0 0-14.75 5.09c-4.96 1.988-9.45 4.609-13.45 7.828-4.01 3.211-7.27 7.18-9.79 11.879-2.53 4.703-3.79 10.453-3.79 17.242v.519c0 7.129 1.35 13.442 4.05 18.93s6.35 10.141 10.96 13.969c4.61 3.832 10.01 6.699 16.19 8.621 6.18 1.91 12.84 2.871 19.98 2.871 8.88 0 17.89-1.441 27.03-4.312 9.14-2.868 17.53-6.829 25.2-11.879l-15.15-27.418c-6.96 4.008-13.75 7.179-20.36 9.527-6.62 2.359-12.45 3.531-17.5 3.531-4.88 0-8.53-.922-10.97-2.75-2.44-1.82-3.65-4.129-3.65-6.922v-.519q0-2.867 2.34-5.09c1.57-1.48 3.66-2.867 6.27-4.18 2.61-1.3 5.61-2.558 9.01-3.781 3.4-1.219 7.01-2.437 10.84-3.656q7.305-2.356 14.88-5.613c5.05-2.18 9.58-4.84 13.58-7.969s7.32-6.961 9.93-11.488c2.6-4.532 3.91-10.012 3.91-16.454v-.52c0-7.839-1.35-14.577-4.04-20.237-2.7-5.66-6.49-10.32-11.36-13.97-4.88-3.652-10.58-6.402-17.11-8.23-6.53-1.82-13.54-2.742-21.02-2.742M2510.83 182.531h39.69V42.559h-39.69zm-1.04 50.66h41.77v-35.25h-41.77zM2589.69 233.191h39.69V42.559h-39.69zM2668.54 182.531h39.69V42.559h-39.69zm-1.04 50.66h41.78v-35.25h-41.78zM2837.49 123.512c-1.22 8.879-4.35 16.066-9.4 21.547-5.06 5.48-11.76 8.222-20.11 8.222-8.36 0-15.11-2.703-20.24-8.09-5.14-5.402-8.49-12.621-10.05-21.679zm-25.6-84.082c-10.44 0-20.14 1.742-29.11 5.218-8.96 3.48-16.71 8.442-23.24 14.883-6.53 6.45-11.62 14.059-15.28 22.86-3.65 8.789-5.48 18.578-5.48 29.371v.519c0 9.93 1.7 19.328 5.09 28.207 3.39 8.871 8.13 16.621 14.23 23.242 6.1 6.61 13.36 11.84 21.81 15.668 8.44 3.832 17.8 5.743 28.07 5.743 11.66 0 21.76-2.082 30.29-6.27 8.53-4.172 15.63-9.781 21.28-16.84 5.66-7.051 9.84-15.152 12.54-24.281 2.7-9.148 4.05-18.668 4.05-28.602 0-1.558-.05-3.218-.14-4.957q-.135-2.614-.39-5.48h-97.4c1.91-9.05 5.88-15.89 11.88-20.5 6-4.621 13.45-6.922 22.33-6.922 6.61 0 12.53 1.133 17.75 3.39 5.23 2.262 10.62 5.923 16.19 10.97l22.72-20.098c-6.61-8.192-14.62-14.59-24.02-19.2-9.4-4.613-20.46-6.921-33.17-6.921M2905.64 182.531h39.69V162.52a85 85 0 0 0 7.44 8.55c2.7 2.719 5.7 5.129 9.02 7.231 3.3 2.109 6.95 3.769 10.96 5 4 1.23 8.53 1.84 13.58 1.84 15.15 0 26.85-4.61 35.13-13.84 8.26-9.223 12.4-21.942 12.4-38.121V42.559h-39.7v77.89c0 9.379-2.08 16.461-6.26 21.231-4.18 4.769-10.1 7.16-17.76 7.16-7.67 0-13.71-2.391-18.15-7.16s-6.66-11.852-6.66-21.231v-77.89h-39.69zM3134.39 39.43c-10.44 0-20.15 1.922-29.12 5.742-8.97 3.828-16.67 9.02-23.11 15.539q-9.66 9.79-15.15 22.98c-3.65 8.79-5.48 18.149-5.48 28.071v.519c0 9.93 1.83 19.328 5.48 28.207q5.49 13.308 15.15 23.242c6.44 6.61 14.14 11.84 23.11 15.668 8.97 3.832 18.84 5.743 29.64 5.743 13.23 0 24.2-2.082 32.91-6.27 8.69-4.172 16.36-9.922 22.97-17.223l-24.28-26.128c-4.53 4.71-9.19 8.449-13.97 11.242-4.79 2.777-10.75 4.179-17.89 4.179-5.05 0-9.62-1.011-13.71-3.011s-7.66-4.739-10.7-8.219c-3.05-3.492-5.4-7.539-7.05-12.152-1.66-4.61-2.48-9.528-2.48-14.75v-.528c0-5.402.82-10.441 2.48-15.14q2.475-7.05 7.17-12.27c3.14-3.492 6.88-6.23 11.23-8.23s9.23-3 14.63-3c6.61 0 12.4 1.34 17.36 4.039 4.97 2.699 9.88 6.308 14.76 10.84l23.24-23.5c-6.79-7.489-14.54-13.622-23.24-18.41-8.71-4.79-20.03-7.18-33.95-7.18M3219.26 182.531h39.69V42.559h-39.69zm-1.04 50.66h41.77v-35.25h-41.77zM3347.99 67.371c9.4 0 16.93 2.258 22.58 6.79 5.66 4.519 8.5 10.44 8.5 17.76v7.048c-3.49 1.562-7.36 2.82-11.63 3.793-4.26.949-8.83 1.429-13.71 1.429q-12.795.001-20.1-4.96c-4.88-3.31-7.31-8.102-7.31-14.36v-.52c0-5.402 1.99-9.581 6-12.542 4-2.957 9.23-4.438 15.67-4.438m-12.01-27.422c-6.62 0-12.84.922-18.67 2.742-5.84 1.828-10.93 4.578-15.28 8.23-4.35 3.65-7.79 8.138-10.31 13.45-2.53 5.309-3.79 11.45-3.79 18.399v.53c0 7.66 1.39 14.27 4.18 19.848 2.78 5.563 6.66 10.18 11.62 13.84 4.96 3.653 10.87 6.403 17.75 8.223 6.88 1.828 14.5 2.738 22.85 2.738 7.14 0 13.37-.519 18.67-1.558a117 117 0 0 0 15.55-4.18v2.348c0 8.363-2.53 14.711-7.58 19.062-5.05 4.348-12.53 6.527-22.46 6.527-7.66 0-14.4-.648-20.23-1.957-5.84-1.312-11.98-3.171-18.42-5.613l-9.92 30.293q11.49 4.951 24.03 8.098c8.35 2.09 18.45 3.133 30.28 3.133 10.98 0 20.33-1.352 28.08-4.051 7.74-2.699 14.14-6.571 19.19-11.621 5.23-5.219 9.05-11.621 11.49-19.192 2.44-7.566 3.66-16.058 3.66-25.457V42.559h-38.39V57.71q-7.32-8.102-17.49-12.93c-6.79-3.21-15.07-4.832-24.81-4.832" style="fill:#4f4c4c;fill-opacity:1;fill-rule:nonzero;stroke:none" transform="matrix(.13333 0 0 -.13333 0 166.533)"/></svg>